<?xml version="1.0" encoding="utf-8"?>
<!-- Generator: Adobe Illustrator 22.0.1, SVG Export Plug-In . SVG Version: 6.00 Build 0)  -->
<svg version="1.1" id="Layer_1" xmlns="http://www.w3.org/2000/svg" xmlns:xlink="http://www.w3.org/1999/xlink" x="0px" y="0px"
	 viewBox="0 0 30 30" style="enable-background:new 0 0 30 30;" xml:space="preserve">
<circle style="fill:#0095FF;" cx="7.3" cy="25.6" r="2.4"/>
<circle style="fill:#0095FF;" cx="24.4" cy="25.6" r="2.4"/>
<path style="fill:#CDCDCD;" d="M27.4,7H6.9L6.3,4.3C6.2,3.6,5.5,3.1,4.6,3.1H1.7C0.8,3.1,0,3.8,0,4.5c0,0.8,0.8,1.4,1.7,1.4H1.7
	c0.9,0,1.6,0.5,1.7,1.2L6,20c0.1,0.7,0.9,1.2,1.7,1.2h16.9c1,0,1.7-0.6,1.7-1.4v0c0-0.7-0.8-1.4-1.7-1.4H10.6
	c-0.9,0-1.6-0.5-1.7-1.2l-0.3-1.3h17.7c1.2,0,2.3-0.7,2.5-1.6L30,9.2C30.2,8,29,7,27.4,7z M13.2,14.6H8.9l-0.7-2.7h5V14.6z
	 M13.2,10.9H7.9L7,8.2h6.2V10.9z M20,14.6h-5.2v-2.7H20V14.6z M20,10.9h-5.2V8.2H20V10.9z M26.4,14.6h-4.8v-2.7h5.6L26.4,14.6z
	 M27.4,10.9h-5.8V8.2h6.8L27.4,10.9z"/>
</svg>
