<?xml version="1.0" encoding="utf-8"?>
<!-- Generator: Adobe Illustrator 22.0.1, SVG Export Plug-In . SVG Version: 6.00 Build 0)  -->
<svg version="1.1" id="Layer_1" xmlns="http://www.w3.org/2000/svg" xmlns:xlink="http://www.w3.org/1999/xlink" x="0px" y="0px"
	 viewBox="0 0 30 30" style="enable-background:new 0 0 30 30;" xml:space="preserve">
<g>
	<polygon style="fill:#0095FF;" points="24.7,17.2 27.7,19.5 22.6,25.3 18.6,26.8 19.6,23 	"/>
	<path style="fill:#0095FF;" d="M29.7,17.3l-0.8,0.9l-3-2.3l0.8-0.9c0.4-0.4,1-0.5,1.4-0.1l1.5,1.1C30,16.3,30.1,16.9,29.7,17.3z"/>
</g>
<path style="fill:#CDCDCD;" d="M25.7,4.1H4.3C2,4.1,0,5.8,0,7.8v12.8c0,2,2,3.6,4.3,3.6h11.8l1-1.1H6c-2.4,0-4.3-1.6-4.3-3.6V8.9
	c0-0.1,0-0.2,0-0.3h26.7c0,0.1,0,0.2,0,0.3v3.9l1.7,0.7V7.8C30,5.8,28,4.1,25.7,4.1z M2,7.5c0.6-1.3,2.2-2.3,4-2.3h18
	c1.8,0,3.4,0.9,4,2.3H2z"/>
<path style="fill:#CDCDCD;" d="M23.4,12H4.9c-0.4,0-0.7-0.3-0.7-0.7v0c0-0.4,0.3-0.7,0.7-0.7h18.5c0.4,0,0.7,0.3,0.7,0.7v0
	C24.1,11.7,23.8,12,23.4,12z"/>
<path style="fill:#CDCDCD;" d="M23.4,15.5H4.9c-0.4,0-0.7-0.3-0.7-0.7v0c0-0.4,0.3-0.7,0.7-0.7h18.5c0.4,0,0.7,0.3,0.7,0.7v0
	C24.1,15.2,23.8,15.5,23.4,15.5z"/>
<path style="fill:#CDCDCD;" d="M12.9,19.1h-8c-0.4,0-0.7-0.3-0.7-0.7v0c0-0.4,0.3-0.7,0.7-0.7h8c0.4,0,0.7,0.3,0.7,0.7v0
	C13.6,18.7,13.2,19.1,12.9,19.1z"/>
</svg>
