<?xml version="1.0" encoding="utf-8"?>
<!-- Generator: Adobe Illustrator 22.0.1, SVG Export Plug-In . SVG Version: 6.00 Build 0)  -->
<svg version="1.1" id="Layer_1" xmlns="http://www.w3.org/2000/svg" xmlns:xlink="http://www.w3.org/1999/xlink" x="0px" y="0px"
	 viewBox="0 0 30 30" style="enable-background:new 0 0 30 30;" xml:space="preserve">
<g>
	<ellipse style="fill:#CDCDCD;" cx="6.7" cy="11.7" rx="3.6" ry="3.2"/>
	<ellipse style="fill:#CDCDCD;" cx="15.1" cy="11" rx="4.3" ry="3.8"/>
	<ellipse style="fill:#CDCDCD;" cx="23.7" cy="11.7" rx="3.6" ry="3.2"/>
	<path style="fill:#0095FF;" d="M0,22c0,0,0.6-5.5,3.9-5.5s4.5-0.1,5.3,0.1c0.7,0.2,1.2,0.6,1.2,0.6s-1.5,1.1-2,2.1
		c-0.5,1-1,2.8-1,2.8H0z"/>
	<path style="fill:#0095FF;" d="M30,22c0,0-0.6-5.5-3.9-5.5s-4.5-0.1-5.3,0.1s-1.2,0.6-1.2,0.6s1.5,1.1,2,2.1c0.5,1,1,2.8,1,2.8H30z
		"/>
	<path style="fill:#CDCDCD;" d="M22.1,23.9c0,0.7-0.1,1.3-0.2,1.9H8.2c-0.1-0.6-0.2-1.2-0.2-1.9c0-1.8,0.4-3.4,1-4.6
		c0.6-1.2,1.5-1.9,2.5-1.9h6.9C20.5,17.5,22.1,20.4,22.1,23.9z"/>
</g>
</svg>
