<?xml version="1.0" encoding="utf-8"?>
<!-- Generator: Adobe Illustrator 22.0.1, SVG Export Plug-In . SVG Version: 6.00 Build 0)  -->
<svg version="1.1" id="Layer_1" xmlns="http://www.w3.org/2000/svg" xmlns:xlink="http://www.w3.org/1999/xlink" x="0px" y="0px"
	 viewBox="0 0 30 30" style="enable-background:new 0 0 30 30;" xml:space="preserve">
<g>
	<g>
		<path style="fill:#CDCDCD;" d="M29.6,10.1L28,12.4l-1.6,2.3c-0.2,0.3-0.9,0.3-1.1,0l-1.6-2.3l-1.6-2.3c-0.2-0.3,0.1-0.8,0.5-0.8
			h1.8c-2-3.4-6.1-5.7-10.4-5.7C7.4,3.5,2.1,9,2.5,15.4C2.9,21,7.5,25.5,13.3,26c5.6,0.3,10.4-3,11.9-7.7c0.2-0.4,0.6-0.8,1.1-0.8
			c0.6,0,1.1,0.5,0.9,1.2c-1.9,5.6-7.6,9.6-14.1,9.2C6.3,27.4,1,22.1,0.5,15.7C0,8,6.2,1.6,14.2,1.6c5.5,0,10.6,3.2,12.8,7.7h2.1
			C29.6,9.2,29.9,9.6,29.6,10.1z"/>
		<path style="fill:#CDCDCD;" d="M14.2,28.3c-0.4,0-0.7,0-1.1,0c-7-0.5-12.4-5.9-12.9-12.6C0,11.9,1.3,8.3,4,5.6s6.4-4.3,10.3-4.3
			c5.6,0,10.7,3.1,13,7.7h1.9c0.3,0,0.7,0.2,0.8,0.4c0.1,0.2,0.1,0.5,0,0.8l-3.1,4.7c-0.2,0.2-0.5,0.4-0.8,0.4l0,0
			c-0.3,0-0.6-0.1-0.8-0.4l-3.2-4.7c-0.2-0.2-0.2-0.5,0-0.8C22.3,9.1,22.6,9,22.9,9h1.3c-2.1-3.2-5.9-5.2-10-5.2C11,3.8,8,5,5.8,7.3
			c-2.2,2.2-3.3,5.2-3.1,8.2c0.3,5.5,4.9,9.9,10.5,10.3c5.3,0.3,10.1-2.7,11.7-7.5c0.2-0.5,0.7-0.9,1.3-0.9c0.4,0,0.8,0.2,1,0.4
			c0.2,0.3,0.3,0.7,0.2,1C25.6,24.5,20.3,28.3,14.2,28.3z M14.2,1.8c-3.7,0-7.3,1.5-9.9,4.1c-2.6,2.6-3.9,6-3.6,9.8
			C1.2,22,6.5,27.2,13.1,27.6c6.3,0.4,11.9-3.2,13.9-9c0.1-0.2,0-0.4-0.1-0.5c-0.1-0.2-0.3-0.2-0.5-0.2c-0.4,0-0.7,0.2-0.8,0.5
			c-1.7,4.9-6.8,8.2-12.2,7.8c-6-0.4-10.7-5-11-10.7C2,12.3,3.2,9.2,5.4,6.9s5.5-3.6,8.8-3.6c4.4,0,8.6,2.3,10.6,5.8L25,9.5h-2.3
			c-0.2,0-0.3,0.1-0.3,0.2c0,0-0.1,0.1,0,0.2l3.2,4.7c0.1,0.1,0.2,0.1,0.3,0.1l0,0c0.1,0,0.3-0.1,0.3-0.1l3.1-4.7
			c0.1-0.1,0-0.2,0-0.2c0-0.1-0.2-0.2-0.3-0.2h-2.3l-0.1-0.1C24.7,4.8,19.6,1.8,14.2,1.8z"/>
	</g>
	<path style="fill:#0095FF;" d="M15.9,15.9c0-0.9-0.6-1.5-1.3-1.9V7.2c0-0.3-0.3-0.7-0.7-0.7h-1.1c-0.4,0-0.7,0.3-0.7,0.7v7
		c-0.9,0.7-1.3,1.8-0.7,3c0.1,0.3,0.4,0.5,0.7,0.8c0.9,0.5,1.9,0.5,2.6,0.1l4.1,2.1c0.3,0.2,0.8,0,0.9-0.3l0.5-1
		c0.2-0.3,0-0.8-0.3-0.9L15.9,15.9z M14.6,17.4c-1.8,1.1-3.7-0.8-2.6-2.4c0.1-0.1,0.2-0.2,0.4-0.3c1.8-1.1,3.7,0.8,2.6,2.4
		C14.9,17.2,14.8,17.3,14.6,17.4z"/>
</g>
</svg>
