<?xml version="1.0" encoding="utf-8"?>
<!-- Generator: Adobe Illustrator 22.0.1, SVG Export Plug-In . SVG Version: 6.00 Build 0)  -->
<svg version="1.1" id="Layer_1" xmlns="http://www.w3.org/2000/svg" xmlns:xlink="http://www.w3.org/1999/xlink" x="0px" y="0px"
	 viewBox="0 0 30 30" style="enable-background:new 0 0 30 30;" xml:space="preserve">
<g>
	<path style="fill:#CDCDCD;" d="M27,26.4H3c-1.7,0-3-1.4-3-3V7.7c0-1.7,1.4-3,3-3h24c1.7,0,3,1.4,3,3v15.7
		C30.1,25.1,28.7,26.4,27,26.4z M3,5.7c-1.1,0-2,0.9-2,2v15.7c0,1.1,0.9,2,2,2h24c1.1,0,2-0.9,2-2V7.7c0-1.1-0.9-2-2-2H3z"/>
</g>
<g>
	<path style="fill:#CDCDCD;" d="M24.7,8.5c0,0.1-0.1,0.2-0.2,0.3L8.5,22.8c-0.1,0.1-0.2,0.2-0.3,0.2c-0.1,0-0.2,0.1-0.4,0.1
		c-0.1,0-0.3,0-0.5,0.1c-0.2,0-0.4,0-0.6,0c-0.3,0-0.5,0-0.7,0c-0.2,0-0.4-0.1-0.5-0.2c-0.1-0.1-0.2-0.2-0.2-0.3
		c0-0.1,0.1-0.2,0.2-0.3L21.5,8.3c0.1-0.1,0.2-0.1,0.3-0.2c0.1,0,0.2-0.1,0.4-0.1c0.1,0,0.3,0,0.5,0c0.3,0,1,0,1.3,0
		c0.2,0,0.4,0.1,0.5,0.2C24.6,8.3,24.7,8.4,24.7,8.5z"/>
</g>
<g>
	<path style="fill:#0095FF;" d="M26.3,18c-0.2-0.5-0.4-1-0.8-1.4c-0.4-0.4-0.9-0.7-1.6-0.9c-0.6-0.2-1.4-0.4-2.4-0.4
		c-0.9,0-1.6,0.1-2.3,0.3c-0.6,0.2-1.2,0.5-1.6,0.9c-0.4,0.4-0.7,0.8-0.9,1.4c-0.2,0.5-0.3,1.1-0.3,1.7c0,0.7,0.1,1.3,0.3,1.8
		c0.2,0.5,0.5,1,0.9,1.4c0.4,0.4,0.9,0.7,1.6,0.9c0.6,0.2,1.4,0.3,2.2,0.3c0.9,0,1.6-0.1,2.3-0.3c0.6-0.2,1.2-0.5,1.6-0.9
		c0.4-0.4,0.7-0.8,0.9-1.4c0.2-0.5,0.3-1.1,0.3-1.8C26.6,19,26.5,18.5,26.3,18z M22.6,22c-0.2,0.1-0.6,0.2-1,0.2
		c-0.4,0-0.7,0-0.9-0.1c-0.2-0.1-0.4-0.2-0.6-0.4c-0.2-0.2-0.3-0.5-0.4-0.8c-0.1-0.3-0.2-0.8-0.2-1.3c0-0.4,0-0.8,0.1-1.1
		c0.1-0.3,0.2-0.6,0.4-0.8c0.2-0.2,0.4-0.3,0.6-0.4c0.3-0.1,0.6-0.1,0.9-0.1c0.4,0,0.7,0,1,0.1c0.3,0.1,0.5,0.2,0.6,0.4
		c0.2,0.2,0.3,0.5,0.4,0.8c0.1,0.3,0.1,0.7,0.1,1.2c0,0.4,0,0.8-0.1,1.1c-0.1,0.3-0.2,0.6-0.3,0.8C23,21.7,22.8,21.9,22.6,22z"/>
	<path style="fill:#0095FF;" d="M13.3,9.8c-0.2-0.5-0.4-1-0.8-1.4c-0.4-0.4-0.9-0.7-1.6-0.9c-0.6-0.2-1.4-0.4-2.4-0.4
		c-0.9,0-1.6,0.1-2.3,0.3C5.6,7.7,5.1,8.1,4.6,8.4C4.2,8.8,3.9,9.3,3.7,9.8c-0.2,0.5-0.3,1.1-0.3,1.7c0,0.7,0.1,1.3,0.3,1.8
		c0.2,0.5,0.5,1,0.9,1.4C5,15,5.5,15.3,6.2,15.5c0.6,0.2,1.4,0.3,2.2,0.3c0.9,0,1.6-0.1,2.3-0.3c0.6-0.2,1.2-0.5,1.6-0.9
		c0.4-0.4,0.7-0.8,0.9-1.4c0.2-0.5,0.3-1.1,0.3-1.8C13.5,10.9,13.4,10.4,13.3,9.8z M9.5,13.9C9.3,14,8.9,14,8.5,14
		c-0.4,0-0.7,0-0.9-0.1c-0.3-0.1-0.5-0.2-0.6-0.4c-0.2-0.2-0.3-0.5-0.4-0.8c-0.1-0.4-0.2-0.8-0.2-1.3c0-0.4,0-0.8,0.1-1.1
		C6.6,10,6.8,9.7,6.9,9.5c0.2-0.2,0.4-0.3,0.6-0.4C7.8,9,8.1,9,8.5,9c0.4,0,0.7,0.1,1,0.2c0.3,0.1,0.5,0.2,0.6,0.5
		c0.2,0.2,0.3,0.5,0.4,0.8c0.1,0.3,0.1,0.7,0.1,1.2c0,0.4,0,0.8-0.1,1.1c-0.1,0.3-0.2,0.6-0.3,0.8C10,13.6,9.8,13.8,9.5,13.9z"/>
</g>
</svg>
