<?xml version="1.0" encoding="utf-8"?>
<!-- Generator: Adobe Illustrator 22.0.1, SVG Export Plug-In . SVG Version: 6.00 Build 0)  -->
<svg version="1.1" id="Layer_1" xmlns="http://www.w3.org/2000/svg" xmlns:xlink="http://www.w3.org/1999/xlink" x="0px" y="0px"
	 viewBox="0 0 30 30" style="enable-background:new 0 0 30 30;" xml:space="preserve">
<g>
	<path style="fill:#CDCDCD;" d="M22.6,12.6c-0.3-0.6-0.6-1-1.1-1.5c-0.4-0.4-1-0.8-1.6-1.1s-1.3-0.5-2-0.7v1.4
		c0.9,0.3,1.6,0.7,2,1.3c0.5,0.6,0.8,1.4,0.8,2.4c0,0.1,0.1,0.1,0.2,0.2c0.1,0,0.2,0.1,0.3,0.1c0.2,0,0.3,0,0.4,0.1H22
		c0.3,0,0.5,0,0.7-0.1s0.3-0.1,0.3-0.2C22.9,13.8,22.8,13.2,22.6,12.6z M15.8,9.1h-0.5c-0.3,0-0.5,0-0.8,0v1.3c0.2,0,0.4,0,0.6,0
		h0.5c0.2,0,0.3,0,0.4,0V9.1C16,9.1,15.8,9.1,15.8,9.1z M22.1,20.2C22,20.1,21.9,20,21.8,20h-7.3c-0.8-0.1-1.6-0.4-2.2-0.7
		c-0.6-0.3-1.2-0.7-1.6-1.2c-0.4-0.4-0.8-0.9-1-1.5c-0.2-0.5-0.3-1.1-0.3-1.7c0-0.5,0.1-1,0.2-1.4c0.2-0.5,0.4-0.9,0.6-1.2
		c0.3-0.4,0.6-0.7,1.1-1c0.4-0.3,0.9-0.5,1.3-0.6V9.3c-0.8,0.2-1.5,0.4-2.2,0.7s-1.3,0.7-1.8,1.2c-0.5,0.5-0.9,1-1.2,1.6
		c-0.3,0.6-0.4,1.3-0.4,2.1c0,0.5,0.1,1,0.2,1.5c0.2,0.5,0.4,1,0.6,1.4C8.1,18.2,8.6,18.7,9,19c0.4,0.4,1.1,0.7,1.7,1H7.8
		c-0.2,0-0.3,0.1-0.4,0.2s-0.2,0.3-0.2,0.5s0.1,0.4,0.2,0.5s0.2,0.1,0.3,0.1h14c0.1,0,0.2,0,0.3-0.1c0.1-0.1,0.2-0.3,0.2-0.5
		C22.2,20.5,22.1,20.3,22.1,20.2z"/>
	<path style="fill:#0095FF;" d="M14.2,14.9H13c-0.2,0-0.3-0.1-0.3-0.3V7.9c0-0.2,0.1-0.3,0.3-0.3h1.2c0.2,0,0.3,0.1,0.3,0.3v6.6
		C14.5,14.7,14.3,14.9,14.2,14.9z"/>
	<path style="fill:#0095FF;" d="M17.6,14.9h-1.2c-0.2,0-0.3-0.1-0.3-0.3V7.9c0-0.2,0.1-0.3,0.3-0.3h1.2c0.2,0,0.3,0.1,0.3,0.3v6.6
		C17.9,14.7,17.8,14.9,17.6,14.9z"/>
</g>
<path style="fill:#CDCDCD;" d="M15,1C6.8,1,0.2,7.3,0.2,15.1S6.8,29.1,15,29.1s14.8-6.2,14.8-14.1C29.8,7.3,23.2,1,15,1z M15,27.2
	c-7.1,0-12.8-5.4-12.8-12.1C2.2,8.4,7.9,2.9,15,2.9s12.8,5.4,12.8,12.1S22.1,27.2,15,27.2z"/>
</svg>
