<?xml version="1.0" encoding="utf-8"?>
<!-- Generator: Adobe Illustrator 22.0.1, SVG Export Plug-In . SVG Version: 6.00 Build 0)  -->
<svg version="1.1" id="Layer_1" xmlns="http://www.w3.org/2000/svg" xmlns:xlink="http://www.w3.org/1999/xlink" x="0px" y="0px"
	 viewBox="0 0 30 30" style="enable-background:new 0 0 30 30;" xml:space="preserve">
<g>
	<g>
		<g>
			<path style="fill:#CDCDCD;" d="M27.2,5.8h-4c-0.5-0.7-1.4-1.1-2.4-1.1h-2.9c-0.5-0.7-1.4-1.2-2.4-1.2H3c-1.6,0-2.9,1.1-2.9,2.5
				v16.5C0.1,23.9,1.4,25,3,25h2.9c0.5,0.7,1.4,1.2,2.5,1.2H12c0.5,0.7,1.3,1.1,2.3,1.1h12.9c1.5,0,2.7-1,2.7-2.3V8
				C29.9,6.8,28.7,5.8,27.2,5.8z M3,4.7h4.7C6.4,5,5.5,6,5.5,7.1v16.6H3c-0.8,0-1.4-0.5-1.4-1.2V5.9C1.6,5.3,2.2,4.7,3,4.7z M7,7.1
				c0-0.7,0.6-1.2,1.4-1.2h5c-1,0.3-1.7,1.2-1.7,2.1v16.9H8.4c-0.6,0-1.1-0.3-1.3-0.8C7,24,7,23.8,7,23.7V7.1z M27.2,26H14.3
				c-0.6,0-1.2-0.5-1.2-1V8c0-0.6,0.5-1,1.2-1h12.9c0.7,0,1.2,0.5,1.2,1V25C28.4,25.5,27.9,26,27.2,26z"/>
		</g>
	</g>
	<g>
		<g>
			<path style="fill:#0095FF;" d="M27.6,12.1H13.9c-0.1,0-0.2-0.1-0.2-0.2v-0.8c0-0.1,0.1-0.2,0.2-0.2h13.7c0.1,0,0.2,0.1,0.2,0.2
				v0.8C27.8,12,27.7,12.1,27.6,12.1z"/>
		</g>
		<g>
			<path style="fill:#0095FF;" d="M27.6,14.3H13.9c-0.1,0-0.2-0.1-0.2-0.2v-0.8c0-0.1,0.1-0.2,0.2-0.2h13.7c0.1,0,0.2,0.1,0.2,0.2
				v0.8C27.8,14.2,27.7,14.3,27.6,14.3z"/>
		</g>
		<g>
			<path style="fill:#0095FF;" d="M27.6,16.5H13.9c-0.1,0-0.2-0.1-0.2-0.2v-0.8c0-0.1,0.1-0.2,0.2-0.2h13.7c0.1,0,0.2,0.1,0.2,0.2
				v0.8C27.8,16.5,27.7,16.5,27.6,16.5z"/>
		</g>
		<g>
			<path style="fill:#0095FF;" d="M27.6,18.8H13.9c-0.1,0-0.2-0.1-0.2-0.2v-0.8c0-0.1,0.1-0.2,0.2-0.2h13.7c0.1,0,0.2,0.1,0.2,0.2
				v0.8C27.8,18.7,27.7,18.8,27.6,18.8z"/>
		</g>
		<g>
			<path style="fill:#0095FF;" d="M20.6,21h-6.7c-0.1,0-0.2-0.1-0.2-0.2V20c0-0.1,0.1-0.2,0.2-0.2h6.7c0.1,0,0.2,0.1,0.2,0.2v0.8
				C20.8,20.9,20.7,21,20.6,21z"/>
		</g>
	</g>
</g>
</svg>
