<svg id="Layer_1" data-name="Layer 1" xmlns="http://www.w3.org/2000/svg" viewBox="0 0 30 19.5"><title>თანამშრომლები</title><path d="M9.2,11.3a3.37,3.37,0,0,1-3.4,3.4,3.4,3.4,0,0,1,0-6.8A3.37,3.37,0,0,1,9.2,11.3Z" transform="translate(0 -3.8)" fill="#00447c"/><circle cx="15" cy="4.2" r="4.2" fill="#9e9e9e"/><path d="M27.6,11.3a3.4,3.4,0,1,1-3.4-3.4A3.37,3.37,0,0,1,27.6,11.3Z" transform="translate(0 -3.8)" fill="#00447c"/><path d="M30,20v3.3H0V20c0-2.6,2.4-4.7,5.5-4.8l-.9,4.7,1.2,1.2L7,19.9l-.9-4.7a7.71,7.71,0,0,1,2.6.7,7.45,7.45,0,0,1,6-3.1l-1.1,5.9,1.5,1.5,1.5-1.5-1.1-5.9a7.45,7.45,0,0,1,6,3.1,5.54,5.54,0,0,1,2.6-.6L23,19.9l1.2,1.2,1.2-1.2-.9-4.7C27.6,15.3,30,17.4,30,20Z" transform="translate(0 -3.8)" fill="#9e9e9e"/></svg>