<svg id="Layer_1" data-name="Layer 1" xmlns="http://www.w3.org/2000/svg" viewBox="0 0 30.12 30.02"><title>პარამეტრები</title><path d="M29.7,12a1.28,1.28,0,0,0-1.1-1.2l-2-.3a13,13,0,0,0-.8-1.7l1-1.8a1.57,1.57,0,0,0-.2-1.6L24.3,3.2A1.49,1.49,0,0,0,22.6,3L20.9,4.1a10.25,10.25,0,0,0-3.7-1.3L16.6,1A1.3,1.3,0,0,0,15.2.1L12,.4a1.51,1.51,0,0,0-1.2,1.1l-.3,2A15.72,15.72,0,0,0,7.4,5.3L5.5,4.5A1.42,1.42,0,0,0,3.9,5L2.1,7.6a1.35,1.35,0,0,0,0,1.7l1.3,1.5a16.55,16.55,0,0,0-.6,2.1L1,13.5a1.3,1.3,0,0,0-.9,1.4l.3,3.2a1.28,1.28,0,0,0,1.1,1.2l2,.3a6.53,6.53,0,0,0,.8,1.7L3.3,23a1.51,1.51,0,0,0,.2,1.7l2.3,2.2a1.49,1.49,0,0,0,1.7.2L9.2,26a10.25,10.25,0,0,0,3.7,1.3l.6,1.9a1.29,1.29,0,0,0,1.3.9h.1l3.2-.3a1.51,1.51,0,0,0,1.2-1.1l.3-2a16.54,16.54,0,0,0,3.2-1.8l1.8.7a1.25,1.25,0,0,0,1.6-.4l1.9-2.5a1.35,1.35,0,0,0,0-1.7l-1.3-1.5c.2-.7.4-1.3.6-2.1l1.9-.7a1.42,1.42,0,0,0,.9-1.4Zm-4.5,3.6v.6a10.3,10.3,0,0,1-.8,2.8l-.3.6,1.8,2.1-1.1,1.5-2.4-1-.5.5a14.15,14.15,0,0,1-3.5,2.1l-.7.2-.4,2.6-1.9.2-.9-2.5h-.7a12.47,12.47,0,0,1-4.1-1.4l-.6-.3L6.8,25,5.5,23.7l1.3-2.3-.3-.6a9,9,0,0,1-1.2-2.4l-.2-.6-2.6-.4-.2-1.9,2.5-.9.1-.7A15.29,15.29,0,0,1,5.6,11l.3-.6L4.2,8.3,5.3,6.8l2.5,1,.5-.5a11,11,0,0,1,3.5-2l.7-.2.4-2.7,1.9-.2.9,2.6h.7a12.47,12.47,0,0,1,4.1,1.4l.6.3,2.3-1.4,1.3,1.3L23.4,8.7l.4.6a6.59,6.59,0,0,1,1.1,2.4l.2.6,2.6.4.2,1.9Z" transform="translate(-0.08 -0.08)" fill="#9e9e9e"/><path d="M15.1,22.3a7.2,7.2,0,1,1,7.2-7.2A7.3,7.3,0,0,1,15.1,22.3Zm0-12.8A5.5,5.5,0,1,0,20.6,15,5.55,5.55,0,0,0,15.1,9.5Z" transform="translate(-0.08 -0.08)" fill="#00447c"/></svg>