<svg id="Layer_1" data-name="Layer 1" xmlns="http://www.w3.org/2000/svg" viewBox="0 0 30 30"><title>სტატისტიკა</title><rect y="18.8" width="6.1" height="11.2" fill="#9e9e9e"/><rect x="15.7" y="21.5" width="6.1" height="8.5" fill="#9e9e9e"/><rect x="8" y="14" width="6.1" height="16" fill="#9e9e9e"/><rect x="23.2" y="12.3" width="6.8" height="17.7" fill="#9e9e9e"/><path d="M27.8,1.8A1.88,1.88,0,0,1,26,3.7a1.27,1.27,0,0,1-.6-.1l-5.3,6.5a2.39,2.39,0,0,1,.2.9,1.8,1.8,0,0,1-3.6,0v-.5L12.1,7.2a1.82,1.82,0,0,1-2,0L5.3,11a1.27,1.27,0,0,1,.1.6A1.8,1.8,0,1,1,3.6,9.8a1.49,1.49,0,0,1,.9.2L9.4,6.1V5.7a1.8,1.8,0,0,1,3.6,0v.4l4.7,3.3a1.6,1.6,0,0,1,1.5-.2l5.3-6.5a1.61,1.61,0,0,1-.3-.9A1.82,1.82,0,0,1,26.1,0,1.85,1.85,0,0,1,27.8,1.8Z" transform="translate(0 0)" fill="#00447c"/></svg>