<svg id="Layer_1" data-name="Layer 1" xmlns="http://www.w3.org/2000/svg" viewBox="0 0 30.03 18.8"><title>ჩეკები</title><path d="M24.4,5.1H21.8a3.08,3.08,0,0,0-2.9-2.5H2.9A3,3,0,0,0,0,5.8v8.1a3,3,0,0,0,2.9,3.2H4.5a3.2,3.2,0,0,0,3.1,3.2h10l.67-1.8H7.7a1.56,1.56,0,0,1-1.5-1.6V10.4H25.8l.8-.8a1.35,1.35,0,0,1,1-.5V8.4A3.38,3.38,0,0,0,24.4,5.1Zm.2,1.5a1.31,1.31,0,0,1,1.2,1.3V9.3H6.2V7.6a1.23,1.23,0,0,1,.4-.8,1.45,1.45,0,0,1,.7-.2ZM4.5,8.4v7H3a1.48,1.48,0,0,1-1.4-1.6v-6h3A1.27,1.27,0,0,0,4.5,8.4ZM5,6.6H1.6V5.3A1.13,1.13,0,0,1,2.7,4.1H19.2a1.25,1.25,0,0,1,1.1,1H7.6A3,3,0,0,0,5,6.6Z" transform="translate(0 -2.6)" fill="#9e9e9e"/><rect x="8" y="9.1" width="11.9" height="1.6" fill="#9e9e9e"/><rect x="8" y="11.1" width="6.6" height="1.5" fill="#9e9e9e"/><polygon points="25.6 10.1 27.9 12.7 23.3 17.8 19.8 18.8 20.9 15.2 25.6 10.1" fill="#00447c"/><path d="M29.8,13.3l-.8.8-2.3-2.5.7-.8a.75.75,0,0,1,1.2,0l1.2,1.3C30.1,12.3,30.1,12.9,29.8,13.3Z" transform="translate(0 -2.6)" fill="#00447c"/></svg>