<svg width="20" height="16" viewBox="0 0 20 16" fill="none" xmlns="http://www.w3.org/2000/svg">
<path d="M9.99552 11.9971C12.2046 11.9971 13.9955 10.2062 13.9955 7.99707C13.9955 5.78793 12.2046 3.99707 9.99552 3.99707C7.78635 3.99707 5.99549 5.78793 5.99549 7.99707C5.99549 10.2062 7.78635 11.9971 9.99552 11.9971ZM19 0H1C0.44772 0 0 0.44771 0 1V15C0 15.5523 0.44772 16 1 16H19C19.5523 16 20 15.5523 20 15V1C20 0.44771 19.5523 0 19 0ZM2 11.6434V4.35078C3.12577 4.01407 4.01348 3.12599 4.34967 2H15.6413C15.9784 3.129 16.8699 4.01882 18 4.35347V11.6407C16.868 11.9759 15.9753 12.8682 15.6395 14H4.35142C4.01656 12.8713 3.12773 11.9807 2 11.6434Z" fill="#848484"/>
</svg>
