<svg width="20" height="19" viewBox="0 0 20 19" fill="none" xmlns="http://www.w3.org/2000/svg">
<path d="M10.001 1.52853C12.35 -0.579999 15.98 -0.509999 18.2426 1.75736C20.5053 4.02472 20.583 7.637 18.4786 9.993L9.9999 18.485L1.52138 9.993C-0.582952 7.637 -0.504292 4.01901 1.75736 1.75736C4.02157 -0.506849 7.64519 -0.583129 10.001 1.52853ZM16.827 3.1701C15.3279 1.66794 12.9076 1.60701 11.337 3.01687L10.0019 4.21524L8.6661 3.01781C7.09098 1.60597 4.67506 1.66808 3.17157 3.17157C1.68183 4.66131 1.60704 7.0473 2.97993 8.6232L9.9999 15.6543L17.0201 8.6232C18.3935 7.0467 18.319 4.66525 16.827 3.1701Z" fill="#848484"/>
</svg>
