<svg width="22" height="22" viewBox="0 0 22 22" fill="none" xmlns="http://www.w3.org/2000/svg">
<path d="M8.67647 0.716658C9.79767 -0.238882 11.4469 -0.238892 12.5682 0.716668L13.9162 1.86542C14.0763 2.00191 14.2754 2.08438 14.4852 2.10112L16.2507 2.24201C17.7192 2.35919 18.8854 3.52536 19.0026 4.99387L19.1435 6.75935C19.1602 6.9691 19.2426 7.16824 19.3791 7.32841L20.5279 8.67646C21.4835 9.79766 21.4835 11.4469 20.5279 12.5682L19.3791 13.9161C19.2427 14.0763 19.1601 14.2755 19.1434 14.4853L19.0026 16.2507C18.8854 17.7193 17.7192 18.8854 16.2507 19.0025L14.4852 19.1434C14.2754 19.1602 14.0763 19.2427 13.9162 19.3792L12.5682 20.5279C11.4469 21.4835 9.79767 21.4834 8.67637 20.5279L7.32838 19.3792C7.16822 19.2427 6.96912 19.1602 6.75937 19.1435L4.99391 19.0025C3.52537 18.8853 2.35923 17.7192 2.24204 16.2507L2.10113 14.4853C2.08439 14.2755 2.0019 14.0764 1.86543 13.9162L0.716669 12.5681C-0.238881 11.4469 -0.238891 9.79776 0.716649 8.67646L1.86541 7.32845C2.0019 7.16829 2.08441 6.9691 2.10114 6.75934L2.24203 4.99386C2.35921 3.52534 3.52534 2.35921 4.99387 2.24202L6.75936 2.10113C6.96912 2.08439 7.16826 2.00191 7.32843 1.86542L8.67647 0.716658ZM11.2709 2.23888C10.8972 1.92038 10.3474 1.92037 9.97367 2.23888L8.62567 3.38765C8.14517 3.79712 7.54775 4.04457 6.91844 4.09479L5.15297 4.23568C4.66346 4.27475 4.27475 4.66345 4.23569 5.15297L4.09479 6.91849C4.04457 7.54777 3.79712 8.14515 3.38766 8.62566L2.2389 9.97366C1.92039 10.3474 1.92038 10.8972 2.2389 11.2709L3.38766 12.6189C3.79713 13.0994 4.04457 13.6969 4.09482 14.3261L4.2357 16.0916C4.27475 16.5811 4.66346 16.9699 5.15299 17.0089L6.91843 17.1498C7.5477 17.2 8.14517 17.4475 8.62567 17.857L9.97367 19.0057C10.3475 19.3242 10.8972 19.3242 11.2709 19.0057L12.619 17.8569C13.0994 17.4475 13.6968 17.2 14.3261 17.1498L16.0916 17.0089C16.5811 16.9698 16.9699 16.5811 17.0089 16.0916L17.1498 14.3261C17.2 13.6968 17.4474 13.0994 17.857 12.619L19.0057 11.2709C19.3243 10.8972 19.3242 10.3475 19.0057 9.97366L17.8569 8.62566C17.4474 8.14515 17.2 7.54775 17.1498 6.91846L17.0089 5.15297C16.9699 4.66346 16.5811 4.27475 16.0916 4.23568L14.3261 4.0948C13.6969 4.04459 13.0994 3.79711 12.6189 3.38764L11.2709 2.23888ZM13.4505 6.37974L14.8647 7.79396L7.79361 14.8651L6.3794 13.4508L13.4505 6.37974ZM8.85427 8.85456C8.26848 9.44036 7.31874 9.44036 6.73295 8.85456C6.14716 8.26886 6.14716 7.31908 6.73295 6.73329C7.31874 6.1475 8.26848 6.1475 8.85427 6.73329C9.44007 7.31908 9.44007 8.26886 8.85427 8.85456ZM12.3898 14.5115C12.9756 15.0973 13.9253 15.0973 14.5111 14.5115C15.0969 13.9257 15.0969 12.976 14.5111 12.3902C13.9253 11.8044 12.9756 11.8044 12.3898 12.3902C11.804 12.976 11.804 13.9257 12.3898 14.5115Z" fill="#848484"/>
</svg>
