<svg width="20" height="20" viewBox="0 0 20 20" fill="none" xmlns="http://www.w3.org/2000/svg">
<path d="M3.67103 2.25667C7.59904 -0.96172 13.4045 -0.73764 17.0711 2.92893C20.9763 6.83418 20.9763 13.1658 17.0711 17.0711C13.1658 20.9763 6.83418 20.9763 2.92894 17.0711C0.404436 14.5466 -0.488124 11.0081 0.251226 7.76666L0.327866 7.45394L2.2623 7.96315C1.56479 10.623 2.25841 13.5721 4.34315 15.6569C7.46734 18.781 12.5326 18.781 15.6568 15.6569C18.781 12.5327 18.781 7.46734 15.6568 4.34315C12.8392 1.5255 8.44262 1.24903 5.31518 3.51375L5.09398 3.67983L6.11092 4.6967L1.51472 5.75736L2.57538 1.16117L3.67103 2.25667ZM11 4V6H13.5V8H8.00002C7.72386 8 7.5 8.2239 7.5 8.5C7.5 8.7455 7.67688 8.9496 7.91013 8.9919L8.00002 9H12C13.3807 9 14.5 10.1193 14.5 11.5C14.5 12.8807 13.3807 14 12 14H11V16H9.00002V14H6.5V12H12C12.2761 12 12.5 11.7761 12.5 11.5C12.5 11.2545 12.3231 11.0504 12.0899 11.0081L12 11H8.00002C6.61929 11 5.5 9.8807 5.5 8.5C5.5 7.11929 6.61929 6 8.00002 6H9.00002V4H11Z" fill="#848484"/>
</svg>
