<?xml version="1.0" encoding="utf-8"?>
<!-- Generator: Adobe Illustrator 22.0.1, SVG Export Plug-In . SVG Version: 6.00 Build 0)  -->
<svg version="1.1" id="Layer_1" xmlns="http://www.w3.org/2000/svg" xmlns:xlink="http://www.w3.org/1999/xlink" x="0px" y="0px"
	 viewBox="0 0 30 30" style="enable-background:new 0 0 30 30;" xml:space="preserve">
<style type="text/css">
	.st0{fill:#00447C;}
	.st1{fill:#9E9E9E;}
</style>
<g>
	<path class="st0" d="M9.2,11.3c0,1.9-1.5,3.4-3.4,3.4c-1.8,0-3.4-1.5-3.4-3.4S4,7.9,5.8,7.9C7.7,7.9,9.2,9.4,9.2,11.3z"/>
	<circle class="st1" cx="15" cy="8" r="4.2"/>
	<path class="st0" d="M27.6,11.3c0,1.9-1.5,3.4-3.4,3.4s-3.4-1.5-3.4-3.4s1.5-3.4,3.4-3.4C26.1,7.9,27.6,9.4,27.6,11.3z"/>
	<path class="st1" d="M30,20v3.3H0V20c0-2.6,2.4-4.7,5.5-4.8l-0.9,4.7l1.2,1.2L7,19.9l-0.9-4.7c0.9,0.1,1.8,0.3,2.6,0.7
		c1.2-1.8,3.4-3,6-3.1l-1.1,5.9l1.5,1.5l1.5-1.5l-1.1-5.9c2.6,0.1,4.8,1.3,6,3.1c0.8-0.4,1.6-0.6,2.6-0.6L23,19.9l1.2,1.2l1.2-1.2
		l-0.9-4.7C27.6,15.3,30,17.4,30,20z"/>
</g>
</svg>
