<?xml version="1.0" encoding="utf-8"?>
<!-- Generator: Adobe Illustrator 22.0.1, SVG Export Plug-In . SVG Version: 6.00 Build 0)  -->
<svg version="1.1" id="Layer_1" xmlns="http://www.w3.org/2000/svg" xmlns:xlink="http://www.w3.org/1999/xlink" x="0px" y="0px"
	 viewBox="0 0 30 30" style="enable-background:new 0 0 30 30;" xml:space="preserve">
<g>
	<g>
		<g>
			<g>
				<path style="fill:#CDCDCD;" d="M29.7,12c0-0.7-0.6-1.1-1.1-1.2l-2-0.3c-0.2-0.6-0.5-1.1-0.8-1.7l1-1.8C27,6.5,27,5.9,26.6,5.4
					l-2.3-2.2c-0.4-0.4-1.1-0.5-1.7-0.2l-1.7,1.1c-1.2-0.7-2.4-1.1-3.7-1.3L16.6,1c-0.2-0.6-0.8-1-1.4-0.9L12,0.4
					c-0.6,0.1-1.1,0.6-1.2,1.1l-0.3,2C9.4,4,8.3,4.6,7.4,5.3L5.5,4.5C4.9,4.3,4.3,4.5,3.9,5L2.1,7.6C1.7,8.1,1.7,8.8,2.1,9.3
					l1.3,1.5c-0.3,0.7-0.4,1.4-0.6,2.1L1,13.5c-0.6,0.2-1,0.8-0.9,1.4l0.3,3.2c0,0.6,0.5,1.1,1.1,1.2l2,0.3c0.2,0.6,0.4,1.1,0.8,1.7
					l-1,1.7c-0.3,0.6-0.2,1.2,0.2,1.7l2.3,2.2c0.4,0.4,1.1,0.5,1.7,0.2l1.7-1.1c1.2,0.7,2.4,1.1,3.7,1.3l0.6,1.9
					c0.2,0.6,0.7,0.9,1.3,0.9h0.1l3.2-0.3c0.6-0.1,1.1-0.6,1.2-1.1l0.3-2c1.2-0.5,2.2-1.1,3.2-1.8l1.8,0.7c0.6,0.3,1.2,0.1,1.6-0.4
					l1.9-2.5c0.4-0.5,0.4-1.2,0-1.7l-1.3-1.5c0.2-0.7,0.4-1.3,0.6-2.1l1.9-0.7c0.6-0.2,0.9-0.8,0.9-1.4L29.7,12z M25.2,15.6l0,0.6
					c-0.2,1.1-0.4,2-0.8,2.8l-0.3,0.6l1.8,2.1l-1.1,1.5l-2.4-1l-0.5,0.5c-1.1,0.9-2.3,1.6-3.5,2.1l-0.7,0.2l-0.4,2.6l-1.9,0.2
					l-0.9-2.5l-0.7,0c-1.4-0.2-2.8-0.7-4.1-1.4l-0.6-0.3l-2.3,1.4l-1.3-1.3l1.3-2.3l-0.3-0.6c-0.5-0.7-0.9-1.5-1.2-2.4l-0.2-0.6
					l-2.6-0.4l-0.2-1.9l2.5-0.9l0.1-0.7C5,12.9,5.3,12,5.6,11l0.3-0.6L4.2,8.3l1.1-1.5l2.5,1l0.5-0.5c1-0.9,2.2-1.5,3.5-2l0.7-0.2
					l0.4-2.7l1.9-0.2l0.9,2.6l0.7,0c1.4,0.2,2.8,0.7,4.1,1.4l0.6,0.3l2.3-1.4l1.3,1.3l-1.3,2.3l0.4,0.6c0.5,0.7,0.9,1.5,1.1,2.4
					l0.2,0.6l2.6,0.4l0.2,1.9L25.2,15.6z"/>
			</g>
		</g>
	</g>
	<g>
		<path style="fill:#0095FF;" d="M15.1,22.3c-4,0-7.2-3.2-7.2-7.2c0-4,3.2-7.2,7.2-7.2c4,0,7.2,3.2,7.2,7.2
			C22.3,19,19,22.3,15.1,22.3z M15.1,9.5c-3,0-5.5,2.5-5.5,5.5s2.5,5.5,5.5,5.5s5.5-2.5,5.5-5.5S18.1,9.5,15.1,9.5z"/>
	</g>
</g>
</svg>
