<?xml version="1.0" encoding="utf-8"?>
<!-- Generator: Adobe Illustrator 22.0.1, SVG Export Plug-In . SVG Version: 6.00 Build 0)  -->
<svg version="1.1" id="Layer_1" xmlns="http://www.w3.org/2000/svg" xmlns:xlink="http://www.w3.org/1999/xlink" x="0px" y="0px"
	 viewBox="0 0 30 30" style="enable-background:new 0 0 30 30;" xml:space="preserve">
<g>
	<rect y="18.8" style="fill:#CDCDCD;" width="6.1" height="11.2"/>
	<rect x="15.7" y="21.5" style="fill:#CDCDCD;" width="6.1" height="8.5"/>
	<rect x="8" y="14" style="fill:#CDCDCD;" width="6.1" height="16"/>
	<rect x="23.2" y="12.2" style="fill:#CDCDCD;" width="6.8" height="17.7"/>
	<g>
		<path style="fill:#0095FF;" d="M27.8,1.8c0,1-0.8,1.9-1.8,1.9c-0.2,0-0.4,0-0.6-0.1l-5.3,6.5c0.1,0.2,0.2,0.6,0.2,0.9
			c0,1-0.8,1.8-1.8,1.8c-1,0-1.8-0.8-1.8-1.8c0-0.2,0-0.3,0-0.5l-4.6-3.3c-0.6,0.4-1.4,0.4-2,0l-4.8,3.8c0.1,0.2,0.1,0.4,0.1,0.6
			c0,1-0.8,1.8-1.8,1.8c-1,0-1.8-0.8-1.8-1.8c0-1,0.8-1.8,1.8-1.8c0.3,0,0.6,0,0.9,0.2l4.9-3.9c0-0.1,0-0.3,0-0.4
			c0-1,0.8-1.8,1.8-1.8c1,0,1.8,0.8,1.8,1.8c0,0.2,0,0.3,0,0.4l4.7,3.3c0.4-0.3,1-0.4,1.5-0.2l5.3-6.5c-0.2-0.3-0.3-0.6-0.3-0.9
			c0-1,0.8-1.8,1.9-1.8C26.9,0,27.8,0.8,27.8,1.8z"/>
	</g>
</g>
</svg>
