<?xml version="1.0" encoding="utf-8"?>
<!-- Generator: Adobe Illustrator 22.0.1, SVG Export Plug-In . SVG Version: 6.00 Build 0)  -->
<svg version="1.1" id="Layer_1" xmlns="http://www.w3.org/2000/svg" xmlns:xlink="http://www.w3.org/1999/xlink" x="0px" y="0px"
	 viewBox="0 0 30 30" style="enable-background:new 0 0 30 30;" xml:space="preserve">
<g>
	<g>
		<g>
			<path style="fill:#CDCDCD;" d="M24.4,5.1h-2.6c-0.3-1.4-1.5-2.5-2.9-2.5h-16C1.3,2.6,0,4,0,5.8v8.1c0,1.8,1.3,3.2,2.9,3.2h1.6
				c0.1,1.8,1.4,3.2,3.1,3.2h9.3l0-0.1c0.1-0.2,0.2-0.3,0.3-0.5l1.1-1.2H7.7c-0.8,0-1.5-0.7-1.5-1.6v-6.5h19.6l0.8-0.8
				c0.2-0.2,0.5-0.4,0.9-0.5l0.1,0V8.4C27.5,6.6,26.1,5.1,24.4,5.1z M24.6,6.6c0.6,0,1.2,0.6,1.2,1.3v1.4H6.2V7.9c0-0.1,0-0.2,0-0.3
				c0-0.3,0.2-0.6,0.4-0.8C6.8,6.7,7,6.6,7.3,6.6H24.6z M4.5,8.4v7H3c-0.8,0-1.4-0.7-1.4-1.6V7.8h3C4.5,8,4.5,8.2,4.5,8.4z M5,6.6
				H1.6V5.3c0-0.7,0.5-1.2,1.1-1.2h16.5c0.5,0,0.9,0.4,1.1,1H7.6C6.5,5.1,5.5,5.7,5,6.6z"/>
		</g>
	</g>
</g>
<g>
	<rect x="8" y="11.7" style="fill:#CDCDCD;" width="11.9" height="1.6"/>
</g>
<g>
	<rect x="7.8" y="13.7" style="fill:#CDCDCD;" width="6.6" height="1.5"/>
</g>
<g>
	<polygon style="fill:#0095FF;" points="25.6,12.7 27.9,15.3 23.3,20.4 19.8,21.4 20.9,17.8 	"/>
	<path style="fill:#0095FF;" d="M29.8,13.3L29,14.1l-2.3-2.5l0.7-0.8c0.3-0.4,0.9-0.4,1.2,0l1.2,1.3C30.1,12.3,30.1,12.9,29.8,13.3z
		"/>
</g>
</svg>
