<svg width="18" height="18" viewBox="0 0 18 18" fill="none" xmlns="http://www.w3.org/2000/svg">
<path d="M14.5 18C12.567 18 11 16.433 11 14.5C11 12.567 12.567 11 14.5 11C16.433 11 18 12.567 18 14.5C18 16.433 16.433 18 14.5 18ZM14.5 16C15.3284 16 16 15.3285 16 14.5C16 13.6716 15.3284 13 14.5 13C13.6716 13 13 13.6716 13 14.5C13 15.3285 13.6716 16 14.5 16ZM3.5 6.99995C1.56701 6.99995 0 5.43299 0 3.5C0 1.567 1.56701 0 3.5 0C5.433 0 7.00002 1.567 7.00002 3.5C7.00002 5.43299 5.433 6.99995 3.5 6.99995ZM3.5 5C4.32843 5 5 4.32842 5 3.5C5 2.67157 4.32843 2 3.5 2C2.67158 2 2 2.67157 2 3.5C2 4.32842 2.67158 5 3.5 5ZM16.0711 0.51472L17.4853 1.92893L1.92894 17.4853L0.51472 16.071L16.0711 0.51472Z" fill="#848484"/>
</svg>
