<svg width="24" height="24" viewBox="0 0 24 24" fill="none" xmlns="http://www.w3.org/2000/svg">
<path d="M3.00488 6.99975L11.4502 1.36955C11.7861 1.14562 12.2237 1.14562 12.5596 1.36955L21.0049 6.99975V20.9997C21.0049 21.552 20.5572 21.9997 20.0049 21.9997H4.00488C3.4526 21.9997 3.00488 21.552 3.00488 20.9997V6.99975ZM5.00488 8.07012V19.9997H19.0049V8.07012L12.0049 3.40345L5.00488 8.07012ZM8.00488 15.9997H16.0049V17.9997H8.00488V15.9997ZM8.00488 12.9997H16.0049V14.9997H8.00488V12.9997ZM12.0049 10.9997C10.9003 10.9997 10.0049 10.1043 10.0049 8.99975C10.0049 7.89518 10.9003 6.99975 12.0049 6.99975C13.1095 6.99975 14.0049 7.89518 14.0049 8.99975C14.0049 10.1043 13.1095 10.9997 12.0049 10.9997Z" fill="#848484"/>
</svg>
