<svg width="26" height="26" viewBox="0 0 26 26" fill="none" xmlns="http://www.w3.org/2000/svg">
<path d="M13.0004 17.3333C15.3935 17.3333 17.3337 15.3932 17.3337 13C17.3337 10.6067 15.3935 8.66665 13.0004 8.66665C10.6071 8.66665 8.66699 10.6067 8.66699 13C8.66699 15.3932 10.6071 17.3333 13.0004 17.3333ZM22.7552 4.33649H3.25521C2.6569 4.33649 2.17188 4.82151 2.17188 5.41982V20.5865C2.17188 21.1848 2.6569 21.6698 3.25521 21.6698H22.7552C23.3536 21.6698 23.8386 21.1848 23.8386 20.5865V5.41982C23.8386 4.82151 23.3536 4.33649 22.7552 4.33649ZM4.33854 16.9501V9.04983C5.55813 8.68506 6.51981 7.72298 6.88402 6.50315H19.1166C19.4818 7.72624 20.4476 8.69021 21.6719 9.05274V16.9472C20.4456 17.3103 19.4785 18.277 19.1147 19.5031H6.88591C6.52315 18.2804 5.56025 17.3155 4.33854 16.9501Z" fill="#3D5AF1"/>
</svg>
