<svg width="20" height="23" viewBox="0 0 20 23" fill="none" xmlns="http://www.w3.org/2000/svg">
<path d="M0 6.28133L9.1491 0.181943C9.51299 -0.0606477 9.98705 -0.0606477 10.3509 0.181943L19.5 6.28133V21.448C19.5 22.0463 19.015 22.5313 18.4167 22.5313H1.08333C0.48503 22.5313 0 22.0463 0 21.448V6.28133ZM2.16667 7.44089V20.3646H17.3334V7.44089L9.75002 2.38533L2.16667 7.44089ZM5.41667 16.0313H14.0834V18.198H5.41667V16.0313ZM5.41667 12.7813H14.0834V14.948H5.41667V12.7813ZM9.75002 10.6146C8.55337 10.6146 7.58336 9.64462 7.58336 8.44799C7.58336 7.25138 8.55337 6.28133 9.75002 6.28133C10.9467 6.28133 11.9167 7.25138 11.9167 8.44799C11.9167 9.64462 10.9467 10.6146 9.75002 10.6146Z" fill="#3D5AF1"/>
</svg>
