<?xml version="1.0" encoding="utf-8"?>
<!-- Generator: Adobe Illustrator 22.0.1, SVG Export Plug-In . SVG Version: 6.00 Build 0)  -->
<svg version="1.1" id="Layer_1" xmlns="http://www.w3.org/2000/svg" xmlns:xlink="http://www.w3.org/1999/xlink" x="0px" y="0px"
	 viewBox="0 0 30 30" style="enable-background:new 0 0 30 30;" xml:space="preserve">
<g>
	<path d="M5.7,6.7c1.2-0.1,2.1,0.7,2,1.6C7.6,8.9,6.9,9.4,6.1,9.5C4.9,9.6,4,8.8,4.1,7.9C4.2,7.3,4.9,6.7,5.7,6.7z"/>
	<path style="fill:#CDCDCD;" d="M11.3,6.7c-1,0.4-1.8,0.8-2.5,1.4c0,0,0-0.1,0-0.1c0-1.3-1.4-2.4-3.2-2.3C4.2,5.9,3.1,6.8,3,7.9
		c-0.1,1.3,1.2,2.4,2.9,2.4c0.6,0,1.1-0.1,1.5-0.3c-0.6,1.2-0.7,2.6-0.2,3.9L8.5,17c0,0,0,0,0,0l-2,5c-0.2,0.5-1.1,0.5-1.3,0
		L0.3,9.5C-0.6,7.3,0.8,5,3.5,4.1C4.2,3.8,5,3.7,5.9,3.7c0.4,0,0.8,0,1.2,0.1S7.8,4,8.2,4.1C9.7,4.6,10.8,5.5,11.3,6.7
		C11.4,6.7,11.3,6.7,11.3,6.7z"/>
	<path d="M22,8.1c-0.1-0.8,0.8-1.5,1.8-1.5c1,0,1.8,0.6,1.8,1.4c0,0.8-0.9,1.5-1.9,1.4C22.8,9.4,22,8.9,22,8.1z"/>
	<path style="fill:#CDCDCD;" d="M29.7,9.5l-5,12.6c-0.2,0.5-1,0.5-1.2,0l-2.2-5.5c0-0.1,0-0.2,0-0.3l0.9-2.4c0.5-1.4,0.4-2.8-0.2-4
		c0.5,0.3,1.1,0.4,1.7,0.4c1.7,0,3.1-1.1,2.9-2.4c-0.1-1.1-1.3-2-2.7-2.1c-1.7-0.1-3.2,1-3.2,2.3c0,0.1,0,0.2,0,0.2
		c-0.5-0.5-1.1-0.9-1.8-1.2c-0.3-0.1-0.4-0.4-0.3-0.6c0.6-1,1.6-1.9,3-2.4c0.7-0.2,1.5-0.4,2.3-0.4c0.4,0,0.8,0,1.2,0.1
		s0.8,0.2,1.1,0.3C29.2,5,30.6,7.3,29.7,9.5z"/>
	<path style="fill:#CDCDCD;" d="M14.8,7.2c-0.1,0-0.1,0-0.2,0c-0.1,0-0.1,0-0.2,0c-4.4,0.1-7.5,3.2-6.2,6.1l5.3,12.4
		c0.3,0.7,1.8,0.7,2.1,0L21,13.3C22.3,10.4,19.2,7.3,14.8,7.2z M14.6,15.3c-1.8,0-3.3-1.3-3.1-2.9c0.1-1.3,1.4-2.4,2.9-2.5
		c1.8-0.1,3.4,1.1,3.4,2.7C17.8,14.1,16.3,15.3,14.6,15.3z"/>
	<path style="fill:#FFFFFF;" d="M7.7,8.1c0,0.8-0.9,1.5-1.9,1.4c-0.9,0-1.7-0.6-1.7-1.3C4,7.3,4.9,6.6,5.9,6.6
		C6.9,6.6,7.7,7.3,7.7,8.1z"/>
	<path style="fill:#FFFFFF;" d="M25.6,8.1c0,0.8-0.9,1.5-1.9,1.4c-0.9,0-1.7-0.6-1.7-1.3c-0.1-0.8,0.8-1.5,1.8-1.5
		C24.8,6.6,25.6,7.3,25.6,8.1z"/>
	<path style="fill:#0095FF;" d="M7.7,8.1c0,0.8-0.9,1.5-1.9,1.4c-0.9,0-1.7-0.6-1.7-1.3C4,7.3,4.9,6.6,5.9,6.6
		C6.9,6.6,7.7,7.3,7.7,8.1z"/>
	<path style="fill:#0095FF;" d="M25.6,8.1c0,0.8-0.9,1.5-1.9,1.4c-0.9,0-1.7-0.6-1.7-1.3c-0.1-0.8,0.8-1.5,1.8-1.5
		C24.8,6.6,25.6,7.3,25.6,8.1z"/>
	<path style="fill:#0095FF;" d="M16.5,12.6c0,1-0.9,1.8-2.1,1.8c-1-0.1-1.8-0.8-1.8-1.7c-0.1-1,0.8-1.9,1.9-1.9
		C15.7,10.8,16.5,11.6,16.5,12.6z"/>
</g>
</svg>
