<?xml version="1.0" encoding="utf-8"?>
<!-- Generator: Adobe Illustrator 22.0.1, SVG Export Plug-In . SVG Version: 6.00 Build 0)  -->
<svg version="1.1" id="Layer_1" xmlns="http://www.w3.org/2000/svg" xmlns:xlink="http://www.w3.org/1999/xlink" x="0px" y="0px"
	 viewBox="0 0 30 30" style="enable-background:new 0 0 30 30;" xml:space="preserve">
<g>
	<path style="fill:#CDCDCD;" d="M27.2,4H24C23.9,5.1,23.1,6,22,6c-1.1,0-1.9-0.9-2-2.1H9.8C9.7,5.1,8.9,6,7.8,6C6.8,6,5.9,5.1,5.9,4
		h-3C1.3,4,0,5,0,6.3v19.8c0,1.3,1.3,2.3,2.8,2.3h24.3c1.6,0,2.8-1,2.8-2.3V6.3C30,5,28.7,4,27.2,4z M27.7,21.4
		c0,1.2-1.2,2.2-2.7,2.2H4.9c-1.5,0-2.7-1-2.7-2.2V9.8h25.5V21.4z"/>
	<ellipse style="fill:#0095FF;" cx="7.9" cy="3.5" rx="1.5" ry="2"/>
	<ellipse style="fill:#0095FF;" cx="22.1" cy="3.5" rx="1.5" ry="2"/>
	<path style="fill:#0095FF;" d="M10.4,15.8l-1,2.8c0,0,4.5,1.7,4.8,2.7c0,0,5.2-7.7,7.4-7.4l-1.4-2.8c0,0-5.7,4-6,6.8
		C14.2,17.9,12.5,16.1,10.4,15.8z"/>
</g>
</svg>
