<?xml version="1.0" encoding="utf-8"?>
<!-- Generator: Adobe Illustrator 22.0.1, SVG Export Plug-In . SVG Version: 6.00 Build 0)  -->
<svg version="1.1" id="Layer_1" xmlns="http://www.w3.org/2000/svg" xmlns:xlink="http://www.w3.org/1999/xlink" x="0px" y="0px"
	 viewBox="0 0 30 30" style="enable-background:new 0 0 30 30;" xml:space="preserve">
<g>
	<g>
		<path style="fill:#CDCDCD;" d="M27.2,4H24c-0.1,1.1-0.9,2.1-2,2.1c-1.1,0-1.9-0.9-2-2.1H9.8c-0.1,1.1-0.9,2.1-2,2.1
			c-1.1,0-1.9-0.9-2-2.1h-3C1.3,4,0,5.1,0,6.4v19.8c0,1.3,1.3,2.3,2.8,2.3h24.3c1.6,0,2.8-1,2.8-2.3V6.4C30,5.1,28.7,4,27.2,4z
			 M27.7,21.5c0,1.2-1.2,2.2-2.7,2.2H4.9c-1.5,0-2.7-1-2.7-2.2V9.8h25.5V21.5z"/>
		<ellipse style="fill:#0095FF;" cx="7.9" cy="3.6" rx="1.5" ry="2"/>
		<ellipse style="fill:#0095FF;" cx="22.1" cy="3.6" rx="1.5" ry="2"/>
	</g>
	<rect x="14.3" y="11.3" style="fill:#0095FF;" width="4.2" height="4.2"/>
	<rect x="19.9" y="11.3" style="fill:#0095FF;" width="4.2" height="4.2"/>
	<rect x="14.3" y="16.7" style="fill:#0095FF;" width="4.2" height="4.2"/>
	<rect x="8.9" y="16.7" style="fill:#0095FF;" width="4.2" height="4.2"/>
	<rect x="19.9" y="16.7" style="fill:#0095FF;" width="4.2" height="4.2"/>
</g>
</svg>
