<?xml version="1.0" encoding="utf-8"?>
<!-- Generator: Adobe Illustrator 22.0.1, SVG Export Plug-In . SVG Version: 6.00 Build 0)  -->
<svg version="1.1" id="Layer_1" xmlns="http://www.w3.org/2000/svg" xmlns:xlink="http://www.w3.org/1999/xlink" x="0px" y="0px"
	 viewBox="0 0 30 30" style="enable-background:new 0 0 30 30;" xml:space="preserve">
<g>
	<path style="fill:#CDCDCD;" d="M15,0C6.8,0,0,6.7,0,15s6.8,15,15,15c8.3,0,15-6.7,15-15S23.3,0,15,0z M15,26.9
		C8.5,26.9,3.2,21.5,3.2,15C3.2,8.5,8.5,3.1,15,3.1c6.5,0,11.9,5.3,11.9,11.9C26.9,21.5,21.5,26.9,15,26.9z"/>
</g>
<path style="fill:#0095FF;" d="M26.9,15H15V3.1C21.6,3.1,26.9,8.4,26.9,15z"/>
</svg>
