<?xml version="1.0" encoding="utf-8"?>
<!-- Generator: Adobe Illustrator 22.0.1, SVG Export Plug-In . SVG Version: 6.00 Build 0)  -->
<svg version="1.1" id="Layer_1" xmlns="http://www.w3.org/2000/svg" xmlns:xlink="http://www.w3.org/1999/xlink" x="0px" y="0px"
	 viewBox="0 0 30 30" style="enable-background:new 0 0 30 30;" xml:space="preserve">
<g>
	<path style="fill:#CDCDCD;" d="M27.2,4H24C23.9,5.1,23.1,6,22,6c-1.1,0-1.9-0.9-2-2.1H9.8C9.7,5.1,8.9,6,7.8,6C6.8,6,5.9,5.1,5.9,4
		h-3C1.3,4,0,5,0,6.3v19.8c0,1.3,1.3,2.3,2.8,2.3h24.3c1.6,0,2.8-1,2.8-2.3V6.3C30,5,28.7,4,27.2,4z M27.7,21.4
		c0,1.2-1.2,2.2-2.7,2.2H4.9c-1.5,0-2.7-1-2.7-2.2V9.8h25.5V21.4z"/>
	<ellipse style="fill:#0095FF;" cx="7.9" cy="3.5" rx="1.5" ry="2"/>
	<ellipse style="fill:#0095FF;" cx="22.1" cy="3.5" rx="1.5" ry="2"/>
</g>
<g>
	<path style="fill:#0095FF;" d="M15,10.3c-3.8,0-6.9,2.9-6.9,6.4c0,3.5,3.1,6.4,6.9,6.4c3.8,0,6.9-2.9,6.9-6.4
		C21.9,13.2,18.8,10.3,15,10.3z M15.7,22.1v-0.2c0-0.3-0.3-0.6-0.7-0.6c-0.4,0-0.7,0.3-0.7,0.6v0.2c-2.7-0.3-4.8-2.3-5.2-4.7h0.3
		c0.4,0,0.7-0.3,0.7-0.6c0-0.4-0.3-0.6-0.7-0.6H9.1c0.3-2.5,2.5-4.5,5.2-4.7v0.2c0,0.4,0.3,0.6,0.7,0.6c0.4,0,0.7-0.3,0.7-0.6v-0.2
		c2.7,0.3,4.8,2.3,5.2,4.7h-0.3c-0.4,0-0.7,0.3-0.7,0.6c0,0.3,0.3,0.6,0.7,0.6h0.3C20.5,19.8,18.3,21.8,15.7,22.1z"/>
	<path style="fill:#0095FF;" d="M15.8,16.7c0,0.4-0.4,0.8-0.8,0.8c-0.1,0-0.3,0-0.4-0.1l-2.4,0.9c-0.3,0.1-0.6,0-0.7-0.3
		c-0.1-0.3,0-0.6,0.3-0.7l2.4-0.9c0-0.1,0.1-0.2,0.2-0.3v-2.5c0-0.3,0.2-0.5,0.6-0.5c0.3,0,0.6,0.2,0.6,0.5v2.5
		C15.7,16.3,15.8,16.5,15.8,16.7z"/>
</g>
</svg>
