<?xml version="1.0" encoding="utf-8"?>
<!-- Generator: Adobe Illustrator 22.0.1, SVG Export Plug-In . SVG Version: 6.00 Build 0)  -->
<svg version="1.1" id="Layer_1" xmlns="http://www.w3.org/2000/svg" xmlns:xlink="http://www.w3.org/1999/xlink" x="0px" y="0px"
	 viewBox="0 0 30 30" style="enable-background:new 0 0 30 30;" xml:space="preserve">
<g>
	<rect x="20.7" y="7.7" style="fill:#0095FF;" width="6.4" height="6.4"/>
	<rect x="10" y="8.1" style="fill:#0095FF;" width="6.4" height="6.4"/>
	
		<rect x="15.3" y="4" transform="matrix(0.889 0.458 -0.458 0.889 5.3445 -7.6897)" style="fill:#0095FF;" width="6.4" height="6.4"/>
	<circle style="fill:#0095FF;" cx="7.3" cy="25" r="2.4"/>
	<circle style="fill:#0095FF;" cx="24.4" cy="25" r="2.4"/>
	<path style="fill:#CDCDCD;" d="M27.4,6.5H6.9L6.3,3.8C6.2,3.1,5.5,2.6,4.6,2.6H1.7C0.8,2.6,0,3.3,0,4c0,0.8,0.8,1.4,1.7,1.4l0,0
		c0.9,0,1.6,0.5,1.7,1.2L6,19.4c0.1,0.7,0.9,1.2,1.7,1.2h16.9c1,0,1.7-0.6,1.7-1.4l0,0c0-0.7-0.8-1.4-1.7-1.4h-14
		c-0.9,0-1.6-0.5-1.7-1.2l-0.3-1.3h17.7c1.2,0,2.3-0.7,2.5-1.6L30,8.7C30.2,7.5,29,6.5,27.4,6.5z M13.2,14.1H8.9l-0.7-2.7h5V14.1z
		 M13.2,10.4H7.9L7,7.7h6.2V10.4z M20,14.1h-5.2v-2.7H20V14.1z M20,10.4h-5.2V7.7H20V10.4z M26.4,14.1h-4.8v-2.7h5.6L26.4,14.1z
		 M27.4,10.4h-5.8V7.7h6.8L27.4,10.4z"/>
</g>
</svg>
