<svg width="24" height="24" viewBox="0 0 24 24" fill="none" xmlns="http://www.w3.org/2000/svg">
<path d="M14.6667 24C13.9303 24 13.3333 23.4031 13.3333 22.6667V12C13.3333 11.2636 13.9303 10.6667 14.6667 10.6667H22.6667C23.4031 10.6667 24 11.2636 24 12V22.6667C24 23.4031 23.4031 24 22.6667 24H14.6667ZM1.33333 13.3333C0.59696 13.3333 0 12.7364 0 12V1.33333C0 0.59696 0.59696 0 1.33333 0H9.33333C10.0697 0 10.6667 0.59696 10.6667 1.33333V12C10.6667 12.7364 10.0697 13.3333 9.33333 13.3333H1.33333ZM8 10.6667V2.66667H2.66667V10.6667H8ZM1.33333 24C0.59696 24 0 23.4031 0 22.6667V17.3333C0 16.5969 0.59696 16 1.33333 16H9.33333C10.0697 16 10.6667 16.5969 10.6667 17.3333V22.6667C10.6667 23.4031 10.0697 24 9.33333 24H1.33333ZM2.66667 21.3333H8V18.6667H2.66667V21.3333ZM16 21.3333H21.3333V13.3333H16V21.3333ZM13.3333 1.33333C13.3333 0.59696 13.9303 0 14.6667 0H22.6667C23.4031 0 24 0.59696 24 1.33333V6.66667C24 7.40304 23.4031 8 22.6667 8H14.6667C13.9303 8 13.3333 7.40304 13.3333 6.66667V1.33333ZM16 2.66667V5.33333H21.3333V2.66667H16Z" fill="#3D5AF1"/>
</svg>
