<svg width="24" height="27" viewBox="0 0 24 27" fill="none" xmlns="http://www.w3.org/2000/svg">
<path d="M22.6667 26.6667H1.33333C0.59696 26.6667 0 26.0697 0 25.3333V1.33333C0 0.59696 0.59696 0 1.33333 0H22.6667C23.4031 0 24 0.59696 24 1.33333V25.3333C24 26.0697 23.4031 26.6667 22.6667 26.6667ZM21.3334 24V2.66667H2.66667V24H21.3334ZM8 5.33333V8C8 10.2091 9.79083 12 12 12C14.2091 12 16 10.2091 16 8V5.33333H18.6667V8C18.6667 11.6819 15.6819 14.6667 12 14.6667C8.31811 14.6667 5.33333 11.6819 5.33333 8V5.33333H8Z" fill="#848484"/>
</svg>
