<svg id="Layer_1" data-name="Layer 1" xmlns="http://www.w3.org/2000/svg" viewBox="0 0 30.02 24.9"><title>გაყიდვები</title><circle cx="7.3" cy="22.5" r="2.4" fill="#00447c"/><circle cx="24.4" cy="22.5" r="2.4" fill="#00447c"/><path d="M27.4,7H6.9L6.3,4.3A1.58,1.58,0,0,0,4.6,3.1H1.7A1.65,1.65,0,0,0,0,4.5,1.58,1.58,0,0,0,1.7,5.9h0A1.58,1.58,0,0,1,3.4,7.1L6,20a1.66,1.66,0,0,0,1.7,1.2H24.6a1.52,1.52,0,0,0,1.7-1.4h0a1.65,1.65,0,0,0-1.7-1.4h-14a1.58,1.58,0,0,1-1.7-1.2l-.3-1.3H26.3a2.49,2.49,0,0,0,2.5-1.6L30,9.2C30.2,8,29,7,27.4,7ZM13.2,14.6H8.9l-.7-2.7h5Zm0-3.7H7.9L7,8.2h6.2ZM20,14.6H14.8V11.9H20Zm0-3.7H14.8V8.2H20Zm6.4,3.7H21.6V11.9h5.6Zm1-3.7H21.6V8.2h6.8Z" transform="translate(0 -3.1)" fill="#9e9e9e"/></svg>