<?xml version="1.0" encoding="UTF-8"?><svg id="Layer_1" xmlns="http://www.w3.org/2000/svg" viewBox="0 0 29.51 24.87"><path d="m29.49,15.82c-.1.46-.33.83-.67,1.11-1.71,1.43-3.42,2.87-5.16,4.27-.48.38-1.02.69-1.58.93-1.99.84-3.98,1.64-5.98,2.45-.84.34-1.68.36-2.56.17-2.94-.67-6.84-1.31-9.79-1.93-.38-.08-.81.05-1.21.09-.25.03-.51.07-.76.1v.79H0v-9.76h1.78v1.03c.31-.06.62-.13.94-.2.1-.02.2-.05.28-.11.83-.66,1.78-.94,2.79-1,1.71-.12,3.3.44,4.82,1.23.97.51,1.98.97,2.97,1.45.33.16.68.13,1.03.11,1.75-.1,3.47.03,5.17.48.26.07.53.17.77.29.39.18.65.51.78.96.16.58,0,1.02-.51,1.25-.32.14-.66.22-.99.29-.25.04-.5.03-.75.04,0,.01,0,.02,0,.04-.93-.12-1.86-.24-2.79-.36-.95-.12-1.89-.25-2.85-.07-.28.06-.56.16-.83.27-.22.1-.31.35-.21.57.1.22.31.32.53.22.62-.28,1.27-.32,1.91-.26.99.1,1.98.24,2.96.36.94.11,1.87.19,2.8-.08.24-.07.49-.18.71-.31.72-.42,1.01-1.16.84-2.03-.11-.49,0-.65.43-.78.59-.17,1.19-.34,1.79-.52.17-.06.34-.15.52-.24.95-.56,1.88-1.13,2.83-1.7.33-.2.68-.3,1.06-.25.54.07.84.52.73,1.1Z" fill="#9e9e9e"/><path d="m25.26,4.46c-.2.21-.28.4-.19.63.09.24.26.36.51.37.28.01.45.18.49.45.04.25-.08.48-.34.58-.23.09-.36.26-.37.52,0,.24.12.41.36.52.26.11.39.33.35.58-.04.28-.21.44-.51.46-.25.02-.42.14-.5.38-.07.24,0,.45.2.61.21.18.26.44.15.67-.11.24-.34.34-.61.27-.24-.07-.44-.01-.59.19-.15.2-.15.4,0,.66.14.25.12.5-.06.68-.18.19-.42.21-.66.06-.21-.14-.41-.16-.62,0-.19.14-.25.34-.19.61.06.3-.03.53-.26.65-.23.12-.46.06-.65-.18-.16-.19-.36-.26-.58-.19-.21.07-.34.25-.36.51-.03.32-.17.5-.45.54-.25.04-.45-.09-.56-.37-.1-.25-.28-.39-.5-.38-.24.01-.4.14-.49.37-.11.29-.32.42-.57.37-.27-.05-.42-.22-.43-.53-.02-.25-.13-.42-.35-.51-.21-.08-.42-.01-.59.19-.19.23-.42.29-.66.16-.22-.12-.32-.35-.25-.63.06-.25,0-.46-.19-.61-.19-.15-.38-.15-.62,0-.24.15-.47.14-.66-.05-.19-.19-.21-.44-.06-.7.14-.24.14-.45,0-.64-.15-.2-.35-.26-.59-.2-.27.08-.49-.03-.61-.26-.12-.24-.06-.49.16-.68.19-.16.26-.36.19-.6-.07-.24-.24-.37-.5-.39-.31-.02-.48-.19-.51-.47-.03-.25.1-.46.36-.57.23-.1.36-.28.35-.51,0-.25-.12-.42-.35-.52-.31-.13-.43-.37-.35-.66.06-.23.22-.36.47-.39.28-.03.45-.14.52-.38.07-.25,0-.45-.2-.61-.21-.18-.26-.43-.15-.67.11-.24.33-.33.61-.27.28.07.47,0,.6-.2.14-.22.12-.43-.01-.64-.15-.24-.12-.49.06-.68.18-.19.42-.21.66-.06.21.14.42.16.62,0,.21-.16.26-.37.19-.63-.07-.27.03-.5.25-.62.22-.12.48-.07.64.14.16.21.36.3.6.21.24-.08.35-.28.36-.54.01-.29.19-.47.44-.51.24-.04.44.09.55.35.11.27.28.41.51.39.25-.01.41-.15.5-.39.1-.27.32-.4.56-.36.26.05.41.23.43.52.03.29.14.47.37.53.24.07.43-.01.59-.21.17-.22.42-.27.64-.15.22.12.32.35.25.61-.07.26-.02.47.19.63.21.16.42.14.63,0,.23-.15.46-.12.64.06.18.19.22.44.07.68-.14.22-.16.44,0,.66.15.21.36.26.61.19.35-.09.65.15.65.52.01.01-.1.3-.2.41Zm-5.92-2.51c-2.68,0-4.87,2.28-4.86,5.07,0,2.79,2.19,5.07,4.87,5.07,2.68,0,4.86-2.28,4.86-5.07,0-2.79-2.19-5.07-4.87-5.07Z" fill="#00447c"/><path d="m18.38,7.44c.07-.07.12-.11.16-.16.86-.9,1.72-1.79,2.58-2.69.24-.25.52-.37.85-.31.36.07.61.28.72.64.11.36.05.7-.2.98-.25.27-.51.54-.77.8-.87.9-1.74,1.81-2.61,2.71-.47.48-.99.48-1.45,0-.49-.51-.98-1.01-1.46-1.52-.26-.28-.32-.61-.21-.98.11-.35.35-.57.7-.64.32-.07.61.03.84.27.28.29.55.58.85.89Z" fill="#9e9e9e"/></svg>