<?xml version="1.0" encoding="UTF-8"?><svg id="Layer_1" xmlns="http://www.w3.org/2000/svg" viewBox="0 0 29.6 28.1"><path d="m22.4,11.6c-.27-.56-.65-1.07-1.1-1.5-.47-.45-1.01-.82-1.6-1.1-.64-.29-1.31-.53-2-.7v1.4c.79.2,1.5.66,2,1.3.33.39.56.86.68,1.36.07.28.11.57.12.86,0,.17,0,.23.13.33.27.14.57.22.88.24.39.07.79.02,1.15-.16.16-.09.14-.13.12-.3-.08-.59-.2-1.17-.38-1.73Zm-6.8-3.5h-1.3v1.3h1.5v-1.3h-.2Zm6.28,11.11c-.17-.29-.51-.21-.8-.21h-6.78c-2.54-.32-5-2.25-5.1-4.95v-.15c-.02-1.97,1.3-3.69,3.2-4.2v-1.4c-.75.17-1.49.41-2.2.7-.95.4-1.77,1.04-2.4,1.86-.67.86-1.02,1.91-1,3-.01,1.13.34,2.23,1,3.14.73.87,1.67,1.56,2.72,2h-2.92c-.69,0-.83,1.3-.1,1.3h14c.11.01.22-.02.3-.1.13-.14.2-.31.2-.5,0-.17-.04-.34-.12-.49Z" fill="#9e9e9e"/><path d="m14,13.9h-1.2c-.15.02-.28-.09-.3-.24,0-.02,0-.04,0-.06v-6.7c-.02-.15.09-.28.24-.3.02,0,.04,0,.06,0h1.2c.15-.02.28.09.3.24,0,.02,0,.04,0,.06v6.6c0,.18-.13.34-.3.4Z" fill="#00447c"/><path d="m17.4,13.9h-1.2c-.15.02-.28-.09-.3-.24,0-.02,0-.04,0-.06v-6.7c-.02-.15.09-.28.24-.3.02,0,.04,0,.06,0h1.2c.15-.02.28.09.3.24,0,.02,0,.04,0,.06v6.6c0,.2-.1.4-.3.4Z" fill="#00447c"/><path d="m28.66,14.04c-.48,0-.9.36-.93.83-.46,6.34-6.07,11.36-12.91,11.36S1.88,20.76,1.88,14.04,7.21,2.3,13.93,1.87c.49-.03.88-.42.88-.91v-.05C14.82.4,14.39-.03,13.87,0,6.14.47,0,6.59,0,14.04s6.65,14.06,14.82,14.06,14.27-5.8,14.78-13.12c.04-.51-.4-.94-.91-.94h-.03Z" fill="#9e9e9e"/><path d="m27.61,6.33l-.98-.98-2.96,2.96c-.58.58-1.54.58-2.12,0l-.86-.86c-.58-.58-.58-1.54,0-2.12l2.96-2.96-.98-.98,2.58-.12,2.6-.12-.12,2.58-.12,2.58v.02Z" fill="#00447c"/></svg>