<?xml version="1.0" encoding="UTF-8"?><svg id="Layer_1" xmlns="http://www.w3.org/2000/svg" viewBox="0 0 28.94 24.89"><g><circle cx="11.86" cy="18.56" r="1.22" fill="#00447c"/><circle cx="17.61" cy="18.56" r="1.22" fill="#00447c"/><path d="m21.25,8.1c-.13-.19-.35-.3-.58-.3h-11.64l-.62-2.08c-.06-.21-.18-.38-.36-.51-.17-.13-.38-.2-.59-.2h-1.65c-.31,0-.56.25-.56.56s.25.56.56.56h1.56l2.82,9.52c.06.21.18.38.36.51.17.13.38.2.59.2h7.82c.31,0,.56-.25.56-.56s-.25-.56-.56-.56h-7.73l-.47-1.58h8.28c.29,0,.56-.19.66-.46l1.62-4.45c.08-.22.05-.46-.08-.65Zm-7.93,2.17v-1.63h2.65v1.63h-2.65Zm2.65.84v1.72h-2.65v-1.72h2.65Zm-3.49-2.47v1.63h-2.72l-.48-1.63h3.2Zm-2.47,2.47h2.47v1.72h-1.96l-.51-1.72Zm8.94,1.72h-2.14v-1.72h2.77l-.63,1.72Zm.93-2.55h-3.07v-1.63h3.67l-.59,1.63Z" fill="#00447c"/></g><path d="m28.94,12.44c0,6.86-6.77,12.45-15.11,12.45-4.45,0-8.46-1.59-11.22-4.13l-2.11.61,2.25-3.47,3.92,1.68-1.71.5c2.33,1.73,5.43,2.79,8.86,2.79,7.21,0,13.05-4.67,13.05-10.42S21.04,2.03,13.83,2.03c-4.93,0-9.24,2.2-11.46,5.44H0C2.33,3.08,7.65,0,13.83,0c8.34,0,15.11,5.59,15.11,12.44Z" fill="#9e9e9e"/></svg>