<?xml version="1.0" encoding="UTF-8"?><svg id="Layer_1" xmlns="http://www.w3.org/2000/svg" viewBox="0 0 28.94 24.89"><circle cx="13.77" cy="7.67" r="2.93" fill="#00447c"/><path d="m13.47,11.31h.6c3.21,0,5.81,2.6,5.81,5.81v.3H7.66v-.3c0-3.21,2.6-5.81,5.81-5.81Z" fill="#00447c"/><path d="m28.94,12.44c0,6.86-6.77,12.45-15.11,12.45-4.45,0-8.46-1.59-11.22-4.13l-2.11.61,2.25-3.47,3.92,1.68-1.71.5c2.33,1.73,5.43,2.79,8.86,2.79,7.21,0,13.05-4.67,13.05-10.42S21.04,2.03,13.83,2.03c-4.93,0-9.24,2.2-11.46,5.44H0C2.33,3.08,7.65,0,13.83,0c8.34,0,15.11,5.59,15.11,12.44Z" fill="#9e9e9e"/></svg>