<?xml version="1.0" encoding="UTF-8"?><svg id="Layer_1" xmlns="http://www.w3.org/2000/svg" viewBox="0 0 27.72 25.07"><path d="m27.72,11.99c0,7.21-6.22,13.07-13.86,13.07S0,19.2,0,11.99C0,6.74,3.29,2.05,8.41,0v2.27c-3.88,1.88-6.32,5.59-6.32,9.72,0,6.06,5.28,10.99,11.78,10.99s11.77-4.93,11.77-10.99c0-4.13-2.45-7.84-6.31-9.72V0c5.1,2.05,8.4,6.74,8.4,11.99Z" fill="#9e9e9e"/><polygon points="25.45 10.51 14.29 20.06 13.87 20.4 13.44 20.06 2.28 10.51 8.5 10.51 8.5 0 9.72 0 9.72 11.55 5.22 11.55 13.87 18.97 22.5 11.55 18 11.55 18 0 19.22 0 19.22 10.51 25.45 10.51" fill="#00447c"/><path d="m13.18,9.43c0,1.41-.74,2.12-1.61,2.12s-1.56-.67-1.57-2.02c0-1.34.73-2.1,1.62-2.1.94,0,1.56.72,1.56,2Zm-2.46.06c-.02.86.3,1.51.87,1.51.6,0,.87-.64.87-1.53,0-.81-.24-1.5-.87-1.5-.57,0-.87.67-.87,1.52Zm.78,4.87l3.94-6.93h.58l-3.94,6.93h-.58Zm6.04-2.16c0,1.41-.74,2.12-1.6,2.12s-1.56-.67-1.57-2.01c0-1.35.73-2.1,1.62-2.1.94,0,1.55.72,1.55,2Zm-2.46.06c-.01.86.32,1.51.88,1.51.6,0,.87-.64.87-1.53,0-.81-.24-1.5-.87-1.5-.57,0-.88.67-.88,1.52Z" fill="#9e9e9e"/></svg>