<?xml version="1.0" encoding="UTF-8"?><svg id="Layer_1" xmlns="http://www.w3.org/2000/svg" viewBox="0 0 29.77 24.89"><path d="m29.77,12.44c0,6.88-6.22,12.45-13.87,12.45-6.76,0-12.4-4.35-13.63-10.11H0l1.78-2.34,1.79-2.34,1.79,2.34,1.79,2.34h-2.74c1.18,4.71,5.86,8.22,11.47,8.22,6.5,0,11.76-4.73,11.76-10.56S22.39,1.89,15.89,1.89c-2.71,0-5.2.82-7.19,2.21l-1.5-1.35C9.58,1.03,12.6,0,15.89,0c7.66,0,13.87,5.57,13.87,12.44Z" fill="#9e9e9e"/><path d="m22.54,7.79v.69-.06c-1.77.46-3.57.7-5.37.7h-.04c-1.58-.01-3.16-.2-4.7-.55v-.79c0-.63,2.27-1.17,5.06-1.17s5.06.53,5.06,1.17Z" fill="#00447c"/><path d="m22.55,9.39v.89l-.02-.06c-1.75.45-3.55.69-5.35.69h-.05c-.44,0-.88,0-1.32-.05-.25-.35-.56-.66-.9-.91.74.08,1.48.12,2.22.12h.05c1.8,0,3.61-.23,5.37-.68Z" fill="#00447c"/><path d="m22.55,11.22v.87l-.02-.06c-1.75.46-3.55.7-5.35.7h-.05c-.17,0-.35,0-.53-.02-.05-.29-.12-.57-.24-.84.26.02.51.02.77.02h.05c1.8,0,3.61-.22,5.37-.67Z" fill="#00447c"/><path d="m22.55,13.06v.88l-.02-.06c-1.75.46-3.55.68-5.35.68h-.05c-.19,0-.39,0-.58,0,.07-.27.11-.54.11-.83.15,0,.32.02.47.02h.05c1.8,0,3.61-.25,5.37-.68Z" fill="#00447c"/><path d="m22.55,14.68v.77c0,.63-2.26,1.17-5.07,1.17-.71,0-1.39-.03-2-.09.33-.35.59-.75.79-1.2.29,0,.56.02.85.02h.05c1.8,0,3.61-.22,5.37-.67Z" fill="#00447c"/><ellipse cx="12.14" cy="13.46" rx="3.95" ry="4.08" fill="#9e9e9e"/><path d="m14.19,15.11s.04.1.04.16-.02.12-.06.17c-.03.02-.06.04-.1.03h-4.3c-.23,0-.18-.43.03-.43h.9c-.33-.15-.61-.38-.84-.66-.2-.3-.31-.66-.31-1.03s.11-.71.31-.99c.19-.27.45-.48.74-.61.22-.1.45-.18.68-.24v.46c-.58.17-.99.73-.99,1.38v.05c.04.89.79,1.52,1.57,1.63h2.09c.09,0,.19-.03.24.07Z" fill="#00447c"/><path d="m11.31,13.28v-2.22s.03-.1.08-.1h.38s.09.03.1.08v.42h.46v.43h-.46v1.35c0,.06-.04.11-.1.13h-.36s-.09-.03-.1-.08Z" fill="#00447c"/><path d="m14.43,13.27c-.11.06-.23.08-.35.05-.09,0-.18-.03-.27-.08-.04-.03-.04-.05-.04-.11,0-.09-.02-.19-.04-.28-.04-.17-.11-.32-.21-.45-.15-.21-.36-.36-.61-.43v1.26c0,.06-.03.13-.09.13h-.37s-.09-.03-.1-.08v-2.22s.03-.1.08-.1h.39s.09.03.09.08v.47c.21.06.42.14.61.24.18.09.34.22.5.36.13.15.25.32.34.49.06.19.1.38.11.57,0,.06.02.07-.04.1Z" fill="#00447c"/></svg>