<?xml version="1.0" encoding="UTF-8"?><svg id="Layer_1" xmlns="http://www.w3.org/2000/svg" viewBox="0 0 30.02 24.57"><ellipse cx="7.3" cy="22.36" rx="2.4" ry="2.21" fill="#00447c"/><ellipse cx="24.4" cy="22.36" rx="2.4" ry="2.21" fill="#00447c"/><path d="m27.4,5.24H6.9l-.6-2.49c-.19-.71-.91-1.18-1.7-1.1H1.7c-.84-.03-1.57.52-1.7,1.29.09.78.85,1.35,1.7,1.29h0c.79-.08,1.51.4,1.7,1.1l2.6,11.87c.21.69.92,1.15,1.7,1.1h16.9c.83.09,1.59-.45,1.69-1.22,0-.02,0-.05,0-.07h0c-.13-.77-.86-1.32-1.7-1.29h-14c-.79.08-1.51-.4-1.7-1.1l-.3-1.2h17.7c1.09.07,2.11-.53,2.5-1.47l1.2-4.69c.2-1.1-1-2.03-2.6-2.03Zm-14.2,7h-4.3l-.7-2.49h5v2.49Zm0-3.41h-5.3l-.9-2.49h6.2v2.49Zm6.8,3.41h-5.2v-2.49h5.2v2.49Zm0-3.41h-5.2v-2.49h5.2v2.49Zm6.4,3.41h-4.8v-2.49h5.6l-.8,2.49Zm1-3.41h-5.8v-2.49h6.8l-1,2.49Z" fill="#9e9e9e"/><path d="m19.14,1.91h-.69v2.1c0,.41-.34.75-.75.75h-.61c-.41,0-.75-.34-.75-.75V1.91h-.69l.87-.95.88-.96.87.96.87.95Z" fill="#00447c"/><path d="m24.31,3.55l-.49-.49-1.48,1.48c-.29.29-.77.29-1.06,0l-.43-.43c-.29-.29-.29-.77,0-1.06l1.48-1.48-.49-.49,1.29-.06,1.3-.06-.06,1.29-.06,1.29Z" fill="#9e9e9e"/><path d="m12.95,1.08l-.49.49,1.48,1.48c.29.29.29.77,0,1.06l-.43.43c-.29.29-.77.29-1.06,0l-1.48-1.48-.49.49-.06-1.29-.06-1.3,1.29.06,1.29.06Z" fill="#9e9e9e"/></svg>