<?xml version="1.0" encoding="UTF-8"?><svg id="Layer_1" xmlns="http://www.w3.org/2000/svg" viewBox="0 0 28.94 24.89"><g><circle cx="14.47" cy="12.44" r="7.85" fill="#00447c"/><path d="m18.09,14.79s.07.17.07.27-.03.2-.1.28c-.05.03-.1.07-.17.05h-7.14c-.38,0-.3-.71.05-.71h1.49c-.55-.25-1.01-.63-1.39-1.1-.33-.5-.51-1.1-.51-1.71s.18-1.18.51-1.64c.32-.45.75-.8,1.23-1.01.37-.17.75-.3,1.13-.4v.76c-.96.28-1.64,1.21-1.64,2.29v.08c.07,1.48,1.31,2.52,2.61,2.7h3.47c.15,0,.32-.05.4.12v.02Z" fill="#9e9e9e"/><path d="m13.31,11.76v-3.68s.05-.17.13-.17h.63s.15.05.17.13v.7h.76v.71h-.76v2.24c0,.1-.07.18-.17.22h-.6s-.15-.05-.17-.13v-.02Z" fill="#9e9e9e"/><path d="m18.49,11.74c-.18.1-.38.13-.58.08-.15,0-.3-.05-.45-.13-.07-.05-.07-.08-.07-.18,0-.15-.03-.32-.07-.46-.07-.28-.18-.53-.35-.75-.25-.35-.6-.6-1.01-.71v2.09c0,.1-.05.22-.15.22h-.61s-.15-.05-.17-.13v-3.68s.05-.17.13-.17h.65s.15.05.15.13v.78c.35.1.7.23,1.01.4.3.15.56.37.83.6.22.25.41.53.56.81.1.32.17.63.18.95,0,.1.03.12-.07.17Z" fill="#9e9e9e"/></g><path d="m0,12.45C0,5.59,6.77,0,15.11,0c4.45,0,8.46,1.59,11.22,4.13l2.11-.61-2.25,3.47-3.92-1.68,1.71-.5c-2.33-1.73-5.43-2.79-8.86-2.79C7.91,2.03,2.06,6.7,2.06,12.45s5.85,10.41,13.05,10.41c4.93,0,9.24-2.2,11.46-5.44h2.38c-2.33,4.4-7.65,7.47-13.83,7.47C6.77,24.89,0,19.3,0,12.45Z" fill="#9e9e9e"/></svg>