<svg id="Layer_1" data-name="Layer 1" xmlns="http://www.w3.org/2000/svg" viewBox="0 0 30 18.6"><title>სტუმრების რაოდენობა</title><ellipse cx="6.7" cy="4.5" rx="3.6" ry="3.2" fill="#9e9e9e"/><ellipse cx="15.1" cy="3.8" rx="4.3" ry="3.8" fill="#9e9e9e"/><ellipse cx="23.7" cy="4.5" rx="3.6" ry="3.2" fill="#9e9e9e"/><path d="M0,22s.6-5.5,3.9-5.5,4.5-.1,5.3.1a3.79,3.79,0,0,1,1.2.6,8,8,0,0,0-2,2.1,20.22,20.22,0,0,0-1,2.8H0Z" transform="translate(0 -7.2)" fill="#00447c"/><path d="M30,22s-.6-5.5-3.9-5.5-4.5-.1-5.3.1a2.73,2.73,0,0,0-1.2.6,8,8,0,0,1,2,2.1,20.22,20.22,0,0,1,1,2.8H30Z" transform="translate(0 -7.2)" fill="#00447c"/><path d="M22.1,23.9a11.08,11.08,0,0,1-.2,1.9H8.2A11.08,11.08,0,0,1,8,23.9a10.43,10.43,0,0,1,1-4.6,3,3,0,0,1,2.5-1.9h6.9C20.5,17.5,22.1,20.4,22.1,23.9Z" transform="translate(0 -7.2)" fill="#9e9e9e"/></svg>