<svg id="Layer_1" data-name="Layer 1" xmlns="http://www.w3.org/2000/svg" viewBox="0 0 30.1 22.7"><title>საშუალო ჩეკი</title><polygon points="24.7 13.1 27.7 15.4 22.6 21.2 18.6 22.7 19.6 18.9 24.7 13.1" fill="#00447c"/><path d="M29.7,17.3l-.8.9-3-2.3.8-.9a1,1,0,0,1,1.4-.1L29.6,16A.85.85,0,0,1,29.7,17.3Z" transform="translate(0 -4.1)" fill="#00447c"/><path d="M25.7,4.1H4.3C2,4.1,0,5.8,0,7.8V20.6c0,2,2,3.6,4.3,3.6H16.1l1-1.1H6c-2.4,0-4.3-1.6-4.3-3.6V8.6H28.4v4.2l1.7.7V7.8A4.28,4.28,0,0,0,25.7,4.1ZM2,7.5A4.42,4.42,0,0,1,6,5.2H24a4.25,4.25,0,0,1,4,2.3Z" transform="translate(0 -4.1)" fill="#9e9e9e"/><path d="M23.4,12H4.9a.68.68,0,0,1-.7-.7h0a.68.68,0,0,1,.7-.7H23.4a.68.68,0,0,1,.7.7h0A.68.68,0,0,1,23.4,12Z" transform="translate(0 -4.1)" fill="#9e9e9e"/><path d="M23.4,15.5H4.9a.68.68,0,0,1-.7-.7h0a.68.68,0,0,1,.7-.7H23.4a.68.68,0,0,1,.7.7h0A.68.68,0,0,1,23.4,15.5Z" transform="translate(0 -4.1)" fill="#9e9e9e"/><path d="M12.9,19.1h-8a.68.68,0,0,1-.7-.7h0a.68.68,0,0,1,.7-.7h8a.68.68,0,0,1,.7.7h0A.85.85,0,0,1,12.9,19.1Z" transform="translate(0 -4.1)" fill="#9e9e9e"/></svg>