<svg id="Layer_1" data-name="Layer 1" xmlns="http://www.w3.org/2000/svg" viewBox="0 0 29.9 27"><title>საშუალო დრო</title><path d="M22.9,9h1.3a12,12,0,0,0-10-5.2A11.48,11.48,0,0,0,5.8,7.3a10.61,10.61,0,0,0-3.1,8.2A11.19,11.19,0,0,0,13.2,25.8a11.41,11.41,0,0,0,11.7-7.5,1.42,1.42,0,0,1,1.3-.9,1.53,1.53,0,0,1,1,.4,1.23,1.23,0,0,1,.2,1,13.69,13.69,0,0,1-13.2,9.5H13.1A13.76,13.76,0,0,1,.2,15.7,13.1,13.1,0,0,1,4,5.6,14.68,14.68,0,0,1,27.3,9h1.9a1,1,0,0,1,.8.4,1.1,1.1,0,0,1,0,.8l-3.1,4.7a1.23,1.23,0,0,1-.8.4.91.91,0,0,1-.8-.4l-3.2-4.7a.6.6,0,0,1,0-.8A.91.91,0,0,1,22.9,9Z" transform="translate(-0.18 -1.3)" fill="#9e9e9e"/><path d="M15.9,15.9A2.22,2.22,0,0,0,14.6,14V7.2a.75.75,0,0,0-.7-.7H12.8a.68.68,0,0,0-.7.7v7a2.3,2.3,0,0,0-.7,3c.1.3.4.5.7.8a2.69,2.69,0,0,0,2.6.1l4.1,2.1a.66.66,0,0,0,.9-.3l.5-1a.66.66,0,0,0-.3-.9Zm-1.3,1.5A1.8,1.8,0,0,1,12,15a1.38,1.38,0,0,1,.4-.3A1.8,1.8,0,0,1,15,17.1,1.38,1.38,0,0,1,14.6,17.4Z" transform="translate(-0.18 -1.3)" fill="#00447c"/></svg>