<?xml version="1.0" encoding="UTF-8"?><svg id="Layer_1" xmlns="http://www.w3.org/2000/svg" viewBox="0 0 30.02 24.87"><path d="m9.23,24.87c-.62,0-1.21-.22-1.66-.63l-.16-.18L.66,14.08C.24,13.65,0,13.1,0,12.51c0-.59.22-1.14.64-1.57L7.41.65C7.87.23,8.47-.02,9.15,0h18.49c1.34.02,2.39,1.02,2.39,2.27v20.33c0,1.24-1.07,2.26-2.39,2.27H9.23Zm-.3-2.06c.09.05.2.1.32.08h18.37c.25,0,.45-.16.45-.29V2.27c0-.12-.17-.29-.46-.29H9.13c-.12,0-.25.03-.34.08L2.05,12.31s-.1.11-.1.19c0,.08.06.15.1.19l.16.18,6.73,9.94Z" fill="#9e9e9e"/><circle cx="5.76" cy="12.6" r="1.63" fill="#00447c"/><g><path d="m13.77,6.92c-1.71-.08-3.17,1.22-3.27,2.91.1,1.7,1.56,3,3.27,2.91,1.71.09,3.17-1.21,3.27-2.91-.1-1.69-1.56-2.99-3.27-2.91Zm0,4.71c-.74,0-1.34-.81-1.34-1.8s.6-1.79,1.34-1.79,1.34.8,1.34,1.79-.6,1.8-1.34,1.8Z" fill="#00447c"/><path d="m22.12,12.13c-1.71-.08-3.17,1.22-3.27,2.91.1,1.7,1.56,3,3.27,2.91,1.71.09,3.17-1.21,3.27-2.91-.1-1.69-1.56-2.99-3.27-2.91Zm0,4.71c-.74,0-1.34-.81-1.34-1.8s.6-1.79,1.34-1.79,1.34.8,1.34,1.79-.6,1.8-1.34,1.8Z" fill="#00447c"/><path d="m23.48,7.57h0c.26.3.22.76-.08,1.02l-9.97,8.44c-.31.26-.77.23-1.03-.08h0c-.26-.3-.22-.76.08-1.02l9.97-8.44c.31-.26.77-.23,1.03.08Z" fill="#9e9e9e"/></g></svg>