<svg id="Layer_1" data-name="Layer 1" xmlns="http://www.w3.org/2000/svg" viewBox="0 0 30.01 21.7"><title>ფასდაკლება</title><path d="M27,26.4H3a3,3,0,0,1-3-3V7.7a3,3,0,0,1,3-3H27a3,3,0,0,1,3,3V23.4A2.89,2.89,0,0,1,27,26.4ZM3,5.7a2,2,0,0,0-2,2V23.4a2,2,0,0,0,2,2H27a2,2,0,0,0,2-2V7.7a2,2,0,0,0-2-2Z" transform="translate(0 -4.7)" fill="#9e9e9e"/><path d="M8.45,6.84a4.9,4.9,0,0,0-5.13,4.61,4.89,4.89,0,0,0,5.13,4.61,4.89,4.89,0,0,0,5.13-4.61A4.9,4.9,0,0,0,8.45,6.84Zm0,7.46c-1.16,0-2.1-1.28-2.1-2.85s.94-2.84,2.1-2.84,2.1,1.27,2.1,2.84S9.61,14.3,8.45,14.3Z" transform="translate(0 -4.7)" fill="#00447c"/><path d="M21.55,15.09a4.9,4.9,0,0,0-5.13,4.61,4.89,4.89,0,0,0,5.13,4.61,4.89,4.89,0,0,0,5.13-4.61A4.9,4.9,0,0,0,21.55,15.09Zm0,7.46c-1.16,0-2.1-1.28-2.1-2.85s.94-2.84,2.1-2.84,2.1,1.27,2.1,2.84S22.71,22.55,21.55,22.55Z" transform="translate(0 -4.7)" fill="#00447c"/><rect x="13.85" y="3.86" width="2.29" height="22.88" rx="1.15" ry="1.15" transform="translate(16.89 -10.74) rotate(49.5)" fill="#9e9e9e"/></svg>