<?xml version="1.0" encoding="UTF-8"?><svg id="Layer_1" xmlns="http://www.w3.org/2000/svg" viewBox="0 0 29.12 22.45"><g><ellipse cx="10.57" cy="20.6" rx="1.95" ry="1.85" fill="#9e9e9e"/><ellipse cx="19.77" cy="20.6" rx="1.95" ry="1.85" fill="#9e9e9e"/><path d="m25.59,4.69c-.21-.29-.56-.46-.92-.46H6.04l-.99-3.16c-.1-.31-.29-.58-.57-.78-.27-.19-.6-.3-.94-.3H.89c-.49,0-.89.38-.89.85s.4.85.89.85h2.49l4.52,14.47c.1.31.29.58.57.78.27.19.6.3.94.3h12.52c.49,0,.89-.38.89-.85s-.4-.85-.89-.85h-12.37l-.75-2.4h13.25c.47,0,.9-.28,1.06-.7l2.6-6.77c.13-.33.08-.69-.14-.98Zm-12.69,3.29v-2.48h4.25v2.48h-4.25Zm4.25,1.27v2.61h-4.25v-2.61h4.25Zm-5.59-3.75v2.48h-4.35l-.77-2.48h5.13Zm-3.95,3.75h3.95v2.61h-3.14l-.81-2.61Zm14.31,2.61h-3.43v-2.61h4.43l-1,2.61Zm1.49-3.88h-4.92v-2.48h5.87l-.95,2.48Z" fill="#9e9e9e"/></g><ellipse cx="24.45" cy="4.68" rx="4.68" ry="4.59" fill="#00447c"/><polyline points="22.15 5.3 24.26 7.11 27.13 2.57" fill="none" stroke="#9e9e9e" stroke-linecap="round" stroke-linejoin="round"/></svg>