<svg id="Layer_1" data-name="Layer 1" xmlns="http://www.w3.org/2000/svg" viewBox="0 0 29.6 28.1"><title>შემოსული თანხა</title><path d="M22.6,12.6a5.27,5.27,0,0,0-1.1-1.5A6.45,6.45,0,0,0,19.9,10a11.76,11.76,0,0,0-2-.7v1.4a3.7,3.7,0,0,1,2,1.3,3.3,3.3,0,0,1,.68,1.36,4.14,4.14,0,0,1,.12.86c0,.17,0,.23.13.33a2.22,2.22,0,0,0,.88.24,1.82,1.82,0,0,0,1.15-.16c.16-.09.14-.13.12-.3A10.28,10.28,0,0,0,22.6,12.6ZM15.8,9.1H14.5v1.3H16V9.1Zm6.28,11.11c-.17-.29-.51-.21-.8-.21H14.5c-2.54-.32-5-2.25-5.1-4.95V14.9a4.31,4.31,0,0,1,3.2-4.2V9.3a14.16,14.16,0,0,0-2.2.7A6,6,0,0,0,8,11.86a4.72,4.72,0,0,0-1,3A5.26,5.26,0,0,0,8,18a7.14,7.14,0,0,0,2.72,2H7.8c-.69,0-.83,1.3-.1,1.3h14a.37.37,0,0,0,.3-.1.76.76,0,0,0,.2-.5A1,1,0,0,0,22.08,20.21Z" transform="translate(-0.2 -1)" fill="#9e9e9e"/><path d="M14.2,14.9H13a.27.27,0,0,1-.3-.3V7.9a.27.27,0,0,1,.3-.3h1.2a.27.27,0,0,1,.3.3v6.6A.45.45,0,0,1,14.2,14.9Z" transform="translate(-0.2 -1)" fill="#00447c"/><path d="M17.6,14.9H16.4a.27.27,0,0,1-.3-.3V7.9a.27.27,0,0,1,.3-.3h1.2a.27.27,0,0,1,.3.3v6.6C17.9,14.7,17.8,14.9,17.6,14.9Z" transform="translate(-0.2 -1)" fill="#00447c"/><path d="M15,1C6.8,1,.2,7.3.2,15.1s6.6,14,14.8,14S29.8,22.9,29.8,15C29.8,7.3,23.2,1,15,1Zm0,26.2c-7.1,0-12.8-5.4-12.8-12.1S7.9,2.9,15,2.9,27.8,8.3,27.8,15,22.1,27.2,15,27.2Z" transform="translate(-0.2 -1)" fill="#9e9e9e"/></svg>