<?xml version="1.0" encoding="UTF-8"?><svg id="Layer_1" xmlns="http://www.w3.org/2000/svg" viewBox="0 0 27.72 24.98"><path d="m17.04,14.16s.06.15.06.24-.03.18-.09.25c-.04.03-.09.06-.15.04h-6.41c-.34,0-.27-.64.04-.64h1.34c-.49-.22-.91-.56-1.25-.98-.3-.45-.46-.98-.46-1.53s.16-1.05.46-1.47c.28-.4.67-.71,1.1-.91.33-.15.67-.27,1.01-.36v.68c-.86.25-1.48,1.08-1.48,2.05v.07c.06,1.32,1.18,2.26,2.34,2.42h3.11c.13,0,.28-.04.36.1h0Z" fill="#9e9e9e"/><path d="m12.75,11.44v-3.3s.04-.15.12-.15h.57s.13.04.15.12v.62h.69v.64h-.69v2c0,.09-.06.16-.15.19h-.54s-.13-.04-.15-.12h0Z" fill="#9e9e9e"/><path d="m17.4,11.43c-.16.09-.34.12-.52.07-.13,0-.27-.04-.4-.12-.06-.04-.06-.07-.06-.16,0-.13-.03-.28-.06-.42-.06-.25-.16-.48-.31-.67-.22-.31-.54-.53-.91-.64v1.87c0,.09-.04.19-.13.19h-.55s-.13-.04-.15-.12v-3.3s.04-.15.12-.15h.58s.13.04.13.12v.7c.31.09.63.21.91.36.27.13.51.33.75.53.19.22.37.48.51.73.09.28.15.56.16.85,0,.09.03.1-.06.15Z" fill="#9e9e9e"/><path d="m27.72,11.95c0,7.18-6.22,13.03-13.86,13.03S0,19.13,0,11.95C0,6.72,3.29,2.05,8.41,0v2.26c-3.88,1.87-6.32,5.57-6.32,9.69,0,6.04,5.28,10.95,11.78,10.95s11.77-4.91,11.77-10.95c0-4.11-2.45-7.82-6.31-9.69V0c5.1,2.05,8.4,6.72,8.4,11.95Z" fill="#9e9e9e"/><polygon points="25.45 10.47 14.29 19.99 13.87 20.33 13.44 19.99 2.28 10.47 8.5 10.47 8.5 0 9.72 0 9.72 11.51 5.22 11.51 13.87 18.9 22.5 11.51 18 11.51 18 0 19.22 0 19.22 10.47 25.45 10.47" fill="#00447c"/></svg>