<svg id="Layer_1" data-name="Layer 1" xmlns="http://www.w3.org/2000/svg" viewBox="0 0 29.8 23.8"><title>ჩეკების რაოდენობა</title><path d="M27.2,5.8h-4a2.9,2.9,0,0,0-2.4-1.1H17.9a3,3,0,0,0-2.4-1.2H3A2.71,2.71,0,0,0,.1,6V22.5A2.71,2.71,0,0,0,3,25H5.9a3,3,0,0,0,2.5,1.2H12a2.71,2.71,0,0,0,2.3,1.1H27.2A2.5,2.5,0,0,0,29.9,25V8A2.49,2.49,0,0,0,27.2,5.8ZM3,4.7H7.7A2.63,2.63,0,0,0,5.5,7.1V23.7H3a1.27,1.27,0,0,1-1.4-1.2V5.9A1.34,1.34,0,0,1,3,4.7ZM7,7.1A1.27,1.27,0,0,1,8.4,5.9h5A2.32,2.32,0,0,0,11.7,8V24.9H8.4a1.34,1.34,0,0,1-1.3-.8.6.6,0,0,1-.1-.4ZM27.2,26H14.3a1.2,1.2,0,0,1-1.2-1V8c0-.6.5-1,1.2-1H27.2a1.13,1.13,0,0,1,1.2,1V25A1.13,1.13,0,0,1,27.2,26Z" transform="translate(-0.1 -3.5)" fill="#9e9e9e"/><path d="M27.6,12.1H13.9a.22.22,0,0,1-.2-.2v-.8a.22.22,0,0,1,.2-.2H27.6a.22.22,0,0,1,.2.2v.8A.22.22,0,0,1,27.6,12.1Z" transform="translate(-0.1 -3.5)" fill="#00447c"/><path d="M27.6,14.3H13.9a.22.22,0,0,1-.2-.2v-.8a.22.22,0,0,1,.2-.2H27.6a.22.22,0,0,1,.2.2v.8A.22.22,0,0,1,27.6,14.3Z" transform="translate(-0.1 -3.5)" fill="#00447c"/><path d="M27.6,16.5H13.9a.22.22,0,0,1-.2-.2v-.8a.22.22,0,0,1,.2-.2H27.6a.22.22,0,0,1,.2.2v.8C27.8,16.5,27.7,16.5,27.6,16.5Z" transform="translate(-0.1 -3.5)" fill="#00447c"/><path d="M27.6,18.8H13.9a.22.22,0,0,1-.2-.2v-.8a.22.22,0,0,1,.2-.2H27.6a.22.22,0,0,1,.2.2v.8A.22.22,0,0,1,27.6,18.8Z" transform="translate(-0.1 -3.5)" fill="#00447c"/><path d="M20.6,21H13.9a.22.22,0,0,1-.2-.2V20a.22.22,0,0,1,.2-.2h6.7a.22.22,0,0,1,.2.2v.8A.22.22,0,0,1,20.6,21Z" transform="translate(-0.1 -3.5)" fill="#00447c"/></svg>