<svg width="32" height="32" viewBox="0 0 32 32" fill="none" xmlns="http://www.w3.org/2000/svg">
<g clip-path="url(#clip0_200_256)">
<path d="M32 0H0V32H32V0Z" fill="white"/>
<path d="M19.1875 0H12.8125V32H19.1875V0Z" fill="#FF0000"/>
<path d="M32 12.8125H0V19.1875H32V12.8125Z" fill="#FF0000"/>
<path fill-rule="evenodd" clip-rule="evenodd" d="M23.8688 23.8687C23.8 22.7437 23.6 21.7812 23.6 21.7812C23.6 21.7812 24.2625 21.8438 24.5938 21.8438C24.925 21.8438 25.5875 21.7812 25.5875 21.7812C25.5875 21.7812 25.3875 22.7375 25.3187 23.8687C26.4437 23.8 27.4062 23.6 27.4062 23.6C27.4062 23.6 27.3438 24.1 27.3438 24.5938C27.3438 25.0875 27.4062 25.5875 27.4062 25.5875C27.4062 25.5875 26.45 25.3875 25.3187 25.3188C25.3875 26.4438 25.5875 27.4062 25.5875 27.4062C25.5875 27.4062 25.0875 27.3438 24.5938 27.3438C24.0938 27.3438 23.6 27.4062 23.6 27.4062C23.6 27.4062 23.8 26.45 23.8688 25.3188C22.7438 25.3875 21.7812 25.5875 21.7812 25.5875C21.7812 25.5875 21.8438 24.925 21.8438 24.5938C21.8438 24.2625 21.7812 23.6 21.7812 23.6C21.7812 23.6 22.7375 23.8 23.8688 23.8687ZM6.68125 6.68125C6.6125 5.55625 6.4125 4.59375 6.4125 4.59375C6.4125 4.59375 7.075 4.65625 7.40625 4.65625C7.7375 4.65625 8.4 4.59375 8.4 4.59375C8.4 4.59375 8.2 5.55625 8.13125 6.68125C9.25625 6.6125 10.2188 6.4125 10.2188 6.4125C10.2188 6.4125 10.1562 6.9125 10.1562 7.40625C10.1562 7.90625 10.2188 8.4 10.2188 8.4C10.2188 8.4 9.2625 8.2 8.13125 8.13125C8.2 9.25625 8.4 10.2188 8.4 10.2188C8.4 10.2188 7.9 10.1562 7.40625 10.1562C6.9125 10.1562 6.4125 10.2188 6.4125 10.2188C6.4125 10.2188 6.6125 9.2625 6.68125 8.13125C5.55625 8.2 4.59375 8.4 4.59375 8.4C4.59375 8.4 4.65625 7.7375 4.65625 7.40625C4.65625 7.08125 4.59375 6.4125 4.59375 6.4125C4.59375 6.4125 5.55625 6.6125 6.68125 6.68125ZM23.8688 6.68125C23.8 5.55625 23.6 4.59375 23.6 4.59375C23.6 4.59375 24.2625 4.65625 24.5938 4.65625C24.925 4.65625 25.5875 4.59375 25.5875 4.59375C25.5875 4.59375 25.3875 5.55625 25.3187 6.68125C26.4437 6.6125 27.4062 6.4125 27.4062 6.4125C27.4062 6.4125 27.3438 6.9125 27.3438 7.40625C27.3438 7.90625 27.4062 8.4 27.4062 8.4C27.4062 8.4 26.45 8.2 25.3187 8.13125C25.3875 9.25625 25.5875 10.2188 25.5875 10.2188C25.5875 10.2188 25.0875 10.1562 24.5938 10.1562C24.0938 10.1562 23.6 10.2188 23.6 10.2188C23.6 10.2188 23.8 9.2625 23.8688 8.13125C22.7438 8.2 21.7812 8.4 21.7812 8.4C21.7812 8.4 21.8438 7.7375 21.8438 7.40625C21.8438 7.08125 21.7812 6.4125 21.7812 6.4125C21.7812 6.4125 22.7375 6.6125 23.8688 6.68125ZM6.68125 23.8687C6.6125 22.7437 6.4125 21.7812 6.4125 21.7812C6.4125 21.7812 7.075 21.8438 7.40625 21.8438C7.7375 21.8438 8.4 21.7812 8.4 21.7812C8.4 21.7812 8.2 22.7375 8.13125 23.8687C9.25625 23.8 10.2188 23.6 10.2188 23.6C10.2188 23.6 10.1562 24.1 10.1562 24.5938C10.1562 25.0875 10.2188 25.5875 10.2188 25.5875C10.2188 25.5875 9.2625 25.3875 8.13125 25.3188C8.2 26.4438 8.4 27.4062 8.4 27.4062C8.4 27.4062 7.9 27.3438 7.40625 27.3438C6.9125 27.3438 6.4125 27.4062 6.4125 27.4062C6.4125 27.4062 6.6125 26.45 6.68125 25.3188C5.55625 25.3875 4.59375 25.5875 4.59375 25.5875C4.59375 25.5875 4.65625 24.925 4.65625 24.5938C4.65625 24.2625 4.59375 23.6 4.59375 23.6C4.59375 23.6 5.55625 23.8 6.68125 23.8687Z" fill="#FF0000"/>
</g>
<defs>
<clipPath id="clip0_200_256">
<rect width="32" height="32" rx="16" transform="matrix(-1 0 0 1 32 0)" fill="white"/>
</clipPath>
</defs>
</svg>
