<svg width="17" height="20" viewBox="0 0 17 20" fill="none" xmlns="http://www.w3.org/2000/svg">
<path d="M7.92792 0.0780025C7.96038 0.0776515 7.9931 0.0773877 8.02655 0.077026C8.09511 0.0764644 8.16403 0.0752168 8.2326 0.0750729L8.54706 0.0711666C8.94865 0.0673369 9.24004 0.0782788 9.51678 0.336792C9.84786 0.684481 9.83769 1.07619 9.83807 1.58386C9.83825 1.63876 9.83786 1.69401 9.83807 1.7489C9.8386 1.89945 9.8388 2.05041 9.83905 2.20105L9.83905 2.20203C9.83936 2.36472 9.8405 2.52772 9.841 2.69031C9.84185 2.97205 9.84234 3.25425 9.84296 3.53601C9.84384 3.94345 9.84474 4.35125 9.84589 4.75867C9.84775 5.41978 9.85016 6.08094 9.85175 6.74207C9.85328 7.38432 9.8549 8.02657 9.85663 8.66882C9.85679 8.72821 9.85647 8.72837 9.85663 8.78894C9.85716 8.9875 9.85707 9.18609 9.8576 9.38464C9.86205 11.0323 9.86631 12.6803 9.8703 14.328L9.87128 14.5702L10.0412 14.3983C10.0622 14.3772 10.084 14.3566 10.1057 14.3348C10.6171 13.82 11.1285 13.3049 11.6408 12.7909C11.8886 12.5423 12.1366 12.2939 12.384 12.0448C12.5995 11.8277 12.8153 11.6109 13.0314 11.3944C13.1458 11.2798 13.2602 11.1648 13.3742 11.0497C13.4815 10.9413 13.5895 10.8332 13.6974 10.7255L13.8156 10.6063C14.1526 10.2644 14.4432 10.0153 14.8967 9.99695L14.8986 9.99695L15.009 9.99011C15.401 10.0563 15.6804 10.3011 15.9699 10.6034L15.9719 10.6044C16.0052 10.6377 16.0382 10.6716 16.0724 10.7059C16.2785 10.9163 16.4546 11.1603 16.5373 11.4169C16.6181 11.668 16.6104 11.9329 16.4504 12.201C16.1422 12.5832 15.7748 12.9194 15.4191 13.2753L15.4191 13.2762C15.3492 13.3463 15.279 13.4161 15.2092 13.4862C15.0199 13.676 14.8303 13.8659 14.6408 14.0555C14.5224 14.1741 14.4037 14.2925 14.2853 14.411C13.957 14.7398 13.6285 15.0687 13.3 15.3973C13.2791 15.4182 13.258 15.4393 13.2365 15.4608C13.2155 15.4818 13.1947 15.5036 13.173 15.5253C13.1519 15.5464 13.1307 15.5676 13.1096 15.5887C13.0883 15.61 13.0663 15.631 13.0451 15.6522C13.0241 15.6733 13.0033 15.695 12.9816 15.7167C12.639 16.0595 12.2965 16.4028 11.9543 16.746C11.6022 17.099 11.2492 17.452 10.8967 17.8046C10.6991 18.0021 10.5011 18.1994 10.3039 18.3973C10.1186 18.5833 9.93307 18.7695 9.74725 18.955C9.6791 19.0231 9.6111 19.0917 9.54315 19.16C9.45062 19.2531 9.35697 19.3466 9.26385 19.4393L9.1828 19.5214C9.04829 19.6544 8.92773 19.7468 8.79803 19.8075C8.70133 19.8527 8.59604 19.8817 8.47089 19.8944L8.33807 19.9022C8.00218 19.8968 7.72632 19.7429 7.46893 19.5214C7.33964 19.4101 7.21747 19.2826 7.09491 19.1512C6.97358 19.0212 6.85003 18.8848 6.72577 18.7606C6.65569 18.6907 6.5859 18.6205 6.51581 18.5507C6.32602 18.3614 6.13611 18.1718 5.94647 17.9823C5.8279 17.8638 5.70862 17.7453 5.59003 17.6268C5.26129 17.2986 4.93225 16.9699 4.6037 16.6415L4.28534 16.3231C3.94252 15.9805 3.59922 15.638 3.25604 15.2958C2.90307 14.9437 2.54998 14.5916 2.19745 14.2391C1.99973 14.0414 1.80179 13.8437 1.6037 13.6464L0.562683 12.6053C0.535937 12.5789 0.50917 12.5525 0.481628 12.5253C0.348246 12.3905 0.255364 12.2704 0.194519 12.1405C0.134253 12.0117 0.103337 11.8673 0.100769 11.6815C0.104359 11.4615 0.145049 11.3091 0.218933 11.1747C0.25681 11.1058 0.303928 11.0402 0.361511 10.9716L0.567565 10.7489L0.746276 10.5585C1.04668 10.236 1.32928 10.0074 1.75507 9.98914C2.01901 10.0045 2.23009 10.1093 2.42499 10.2606C2.62534 10.4162 2.79972 10.6131 3.00018 10.8143C3.03983 10.854 3.07965 10.8938 3.11932 10.9335C3.22612 11.0403 3.33294 11.1478 3.43964 11.2548C3.55144 11.3668 3.66372 11.4788 3.77557 11.5907C3.98707 11.8023 4.19798 12.0147 4.40936 12.2264C4.65027 12.4678 4.89198 12.7089 5.133 12.9501C5.62823 13.4457 6.12334 13.9415 6.61835 14.4374L6.78924 14.6083L6.78924 14.2821C6.7924 12.6203 6.79591 10.9585 6.79999 9.29675C6.80048 9.09729 6.80146 8.89758 6.80194 8.69812C6.80209 8.63852 6.80179 8.63783 6.80194 8.57703C6.80349 7.93388 6.80467 7.29047 6.80585 6.64734C6.80706 5.98751 6.80895 5.32768 6.81073 4.66785C6.81182 4.26055 6.81211 3.8525 6.81268 3.44519C6.81309 3.16604 6.81469 2.88647 6.81561 2.6073C6.81613 2.44627 6.81653 2.28502 6.81659 2.1239C6.81665 1.97645 6.81687 1.829 6.81757 1.68152C6.81784 1.603 6.81768 1.52438 6.81757 1.44617L6.82733 1.13953C6.84783 0.848251 6.91138 0.599386 7.11249 0.374878C7.3721 0.163487 7.59636 0.0802639 7.92694 0.0780025L7.92792 0.0780025Z" fill="#FD3333" stroke="white" stroke-width="0.2"/>
</svg>
