<svg width="17" height="20" viewBox="0 0 17 20" fill="none" xmlns="http://www.w3.org/2000/svg">
<path d="M8.75977 19.8944C8.7273 19.8948 8.69458 19.895 8.66113 19.8954C8.59257 19.8959 8.52365 19.8972 8.45508 19.8973L8.14062 19.9012C7.73903 19.9051 7.44764 19.8941 7.1709 19.6356C6.83982 19.2879 6.84999 18.8962 6.84961 18.3885C6.84943 18.3337 6.84982 18.2784 6.84961 18.2235C6.84908 18.073 6.84888 17.922 6.84863 17.7714L6.84863 17.7704C6.84832 17.6077 6.84719 17.4447 6.84668 17.2821C6.84583 17.0004 6.84534 16.7182 6.84473 16.4364C6.84384 16.029 6.84295 15.6212 6.8418 15.2137C6.83994 14.5526 6.83752 13.8915 6.83594 13.2303C6.8344 12.5881 6.83278 11.9458 6.83105 11.3036C6.83089 11.2442 6.83122 11.244 6.83105 11.1835C6.83052 10.9849 6.83061 10.7863 6.83008 10.5878C6.82563 8.94009 6.82137 7.29209 6.81738 5.64441L6.81641 5.40222L6.64648 5.5741C6.6255 5.59522 6.60364 5.61581 6.58203 5.63757C6.07061 6.15245 5.55921 6.66756 5.04687 7.18152C4.7991 7.4301 4.55103 7.6785 4.30371 7.92761C4.08818 8.14471 3.87238 8.36152 3.65625 8.578C3.54185 8.6926 3.42748 8.80758 3.31348 8.92273C3.20619 9.03109 3.09822 9.1392 2.99023 9.24695L2.87207 9.36609C2.53507 9.70803 2.24451 9.95712 1.79102 9.97546L1.78906 9.97546L1.67871 9.9823C1.28663 9.91606 1.00729 9.67132 0.717773 9.36902L0.71582 9.36804C0.682528 9.33467 0.649523 9.30084 0.615234 9.26648C0.409199 9.05614 0.233078 8.81216 0.15039 8.55554C0.0695785 8.30439 0.0773004 8.03954 0.237304 7.77136C0.545446 7.38923 0.912889 7.05301 1.26855 6.69714L1.26855 6.69617C1.33845 6.62609 1.40863 6.5563 1.47852 6.48621C1.66778 6.29643 1.85742 6.1065 2.04687 5.91687C2.16529 5.79834 2.28397 5.67995 2.40234 5.5614C2.73068 5.23259 3.0592 4.9037 3.38769 4.57507C3.40858 4.55418 3.42966 4.53312 3.45117 4.5116C3.47217 4.49059 3.49301 4.46879 3.51465 4.44714C3.5358 4.42598 3.55697 4.40483 3.57812 4.38367C3.59935 4.36243 3.62135 4.34142 3.64258 4.32019C3.66363 4.29913 3.68437 4.27743 3.70605 4.25574C4.0487 3.91293 4.39115 3.5696 4.7334 3.22644C5.08545 2.87346 5.43852 2.52039 5.79101 2.16785C5.98856 1.97027 6.18654 1.77303 6.38379 1.57507C6.56908 1.38912 6.75461 1.20293 6.94043 1.01746C7.00858 0.949332 7.07658 0.880712 7.14453 0.812378C7.23706 0.719359 7.33071 0.625788 7.42383 0.533081L7.50488 0.451049C7.63939 0.318034 7.75995 0.225618 7.88965 0.164917C7.98635 0.119696 8.09165 0.0907311 8.2168 0.0780026L8.34961 0.0701901C8.6855 0.0756165 8.96137 0.229487 9.21875 0.451049C9.34804 0.562351 9.47021 0.689782 9.59277 0.821167C9.7141 0.951229 9.83765 1.08761 9.96191 1.21179C10.032 1.28169 10.1018 1.35187 10.1719 1.42175C10.3617 1.61103 10.5516 1.80064 10.7412 1.99011C10.8598 2.10858 10.9791 2.22716 11.0977 2.34558C11.4264 2.67384 11.7554 3.00251 12.084 3.33093L12.4023 3.64929C12.7452 3.99195 13.0885 4.33437 13.4316 4.67664C13.7846 5.02868 14.1377 5.38079 14.4902 5.73328C14.688 5.93096 14.8859 6.12866 15.084 6.32605L16.125 7.36706C16.1517 7.3935 16.1785 7.41992 16.2061 7.44714C16.3394 7.5819 16.4323 7.70206 16.4932 7.83191C16.5534 7.96067 16.5843 8.10512 16.5869 8.29089C16.5833 8.51088 16.5426 8.66332 16.4687 8.79773C16.4309 8.86663 16.3838 8.93222 16.3262 9.00085L16.1201 9.22351L15.9414 9.41394C15.641 9.73643 15.3584 9.96502 14.9326 9.98328C14.6687 9.96793 14.4576 9.86312 14.2627 9.71179C14.0623 9.55619 13.888 9.35934 13.6875 9.15808C13.6478 9.11842 13.608 9.07859 13.5684 9.03894C13.4616 8.93216 13.3547 8.82462 13.248 8.71765C13.1362 8.6056 13.024 8.49361 12.9121 8.38171C12.7006 8.17009 12.4897 7.95774 12.2783 7.74597C12.0374 7.50462 11.7957 7.26355 11.5547 7.02234C11.0594 6.52669 10.5643 6.03091 10.0693 5.53503L9.89844 5.36414L9.89844 5.69031C9.89529 7.35209 9.89177 9.01388 9.88769 10.6757C9.88721 10.8751 9.88623 11.0748 9.88574 11.2743C9.8856 11.3339 9.88589 11.3346 9.88574 11.3954C9.88419 12.0385 9.88301 12.6819 9.88184 13.3251C9.88062 13.9849 9.87873 14.6447 9.87695 15.3046C9.87586 15.7119 9.87557 16.1199 9.875 16.5272C9.87459 16.8064 9.87299 17.0859 9.87207 17.3651C9.87155 17.5261 9.87115 17.6874 9.87109 17.8485C9.87104 17.996 9.87081 18.1434 9.87012 18.2909C9.86984 18.3694 9.87 18.448 9.87012 18.5262L9.86035 18.8329C9.83986 19.1242 9.77631 19.373 9.5752 19.5975C9.31558 19.8089 9.09132 19.8921 8.76074 19.8944L8.75977 19.8944Z" fill="#2DC445" stroke="white" stroke-width="0.2"/>
</svg>
